<svg xmlns="http://www.w3.org/2000/svg" viewBox="0 0 512 512"><defs><style>.fa-secondary{opacity:.4}</style></defs><path d="M0 96a96 96 0 0 1 177-51.6A256.85 256.85 0 0 0 30.7 166.3 95.47 95.47 0 0 1 0 96zm481.3 70.3A96 96 0 1 0 335 44.4a256.85 256.85 0 0 1 146.3 121.9zM59.62 395.81l-47.9 47.91a40 40 0 0 0 56.56 56.56l42.09-42.09a224.93 224.93 0 0 1-50.75-62.38zm392.76 0a224.93 224.93 0 0 1-50.75 62.38l42.09 42.09a40 40 0 0 0 56.56-56.56z" class="fa-secondary"/><path d="M256 64C132.29 64 32 164.29 32 288s100.29 224 224 224 224-100.29 224-224S379.71 64 256 64zm93.49 283.76L325 379.35a12 12 0 0 1-16.82 2.14l-77.67-57.13a16 16 0 0 1-6.51-12.88V172a12 12 0 0 1 12-12h40a12 12 0 0 1 12 12v118.22l59.41 40.72a12 12 0 0 1 2.08 16.82z" class="fa-primary"/></svg>
