<svg xmlns="http://www.w3.org/2000/svg" viewBox="0 0 640 512"><defs><style>.fa-secondary{opacity:.4}</style></defs><path d="M138.1 444.14A63.79 63.79 0 0 0 211.9 421L96.5 379a63.62 63.62 0 0 0 41.6 65.14zM543.5 411l-115.4 42a63.6 63.6 0 0 0 115.4-42z" class="fa-secondary"/><path d="M242 253.93c-27.9-76.7 5-160.6 73.7-199.8A131.3 131.3 0 0 0 288.3 40a133.54 133.54 0 0 0-171 79.8c-.8 2.1-14.7 40.4-15.4 42.6-29.2 80.1-66.4 94.3-87.4 105-20.1 10.3-19.5 40.6 3 48.8l243.3 88.6c8.4-19.2 19.5-45.6-3.3-108.2-9.8-26.97-6.2-17.07-15.5-42.67zm383.57 45.48c-21-10.7-58.3-24.9-87.4-105-.8-2.2-14.69-40.51-15.39-42.61C497.48 82.58 421 46.88 351.79 72.08A133.37 133.37 0 0 0 272.1 243c.8 2.1 14.8 40.41 15.6 42.61 29.2 80.11 9.7 114.91.5 136.62-8.8 20.7 11.2 43.6 33.7 35.4l300.57-109.41c20.53-7.5 24.89-37.61 3.1-48.81z" class="fa-primary"/></svg>
