<svg xmlns="http://www.w3.org/2000/svg" viewBox="0 0 512 512"><defs><style>.fa-secondary{opacity:.4}</style></defs><path d="M487.76 315.6l-42.6-24.6a192.62 192.62 0 0 0 0-70.2l42.6-24.6a12.09 12.09 0 0 0 5.5-14 249.06 249.06 0 0 0-54.7-94.6 12 12 0 0 0-14.8-2.3l-42.6 24.6a188.72 188.72 0 0 0-60.8-35.1V25.7A12 12 0 0 0 311 14a251.39 251.39 0 0 0-109.2 0 12 12 0 0 0-9.4 11.7v49.2a194.68 194.68 0 0 0-60.8 35.1L89.06 85.4a11.88 11.88 0 0 0-14.8 2.3 247.56 247.56 0 0 0-54.7 94.6 12 12 0 0 0 5.5 14l42.6 24.6a192.62 192.62 0 0 0 0 70.2l-42.6 24.6a12.09 12.09 0 0 0-5.5 14 249.06 249.06 0 0 0 54.7 94.6 12 12 0 0 0 14.8 2.3l42.6-24.6a188.72 188.72 0 0 0 60.8 35.1v49.2a12 12 0 0 0 9.4 11.7 251.39 251.39 0 0 0 109.2 0 12 12 0 0 0 9.4-11.7v-49.2a194.68 194.68 0 0 0 60.8-35.1l42.6 24.6a11.88 11.88 0 0 0 14.8-2.3 247.56 247.56 0 0 0 54.7-94.6 12.35 12.35 0 0 0-5.6-14.1zm-231.4 20.3a80 80 0 1 1 80-80 80.11 80.11 0 0 1-80 80z" class="fa-primary"/></svg>
