<svg xmlns="http://www.w3.org/2000/svg" viewBox="0 0 320 512"><defs><style>.fa-secondary{opacity:.4}</style></defs><path d="M12 272h21.39a296.64 296.64 0 0 1 .18-42.24H12a12 12 0 0 1-12-12V188a12 12 0 0 1 12-12h33.08C74 92.25 152.45 32 249.64 32a290.66 290.66 0 0 1 52.68 5.21 12 12 0 0 1 9.33 14.91l-12 44.37a12 12 0 0 1-14 8.62A196.2 196.2 0 0 0 247.8 101c-54.93 0-97 30-117.62 75h138.28a12 12 0 0 1 11.72 14.57l-6.51 29.75a12 12 0 0 1-11.67 9.44H115.36a215.9 215.9 0 0 0-.14 42.24h134.24a12 12 0 0 1 11.7 14.63L254.79 315a12 12 0 0 1-11.71 9.37H129.4c19.53 50.66 64.69 85.45 121.46 85.45a210 210 0 0 0 45.42-5.41 12 12 0 0 1 14.43 9.37l8.81 44.49a12 12 0 0 1-8.78 13.95 249.11 249.11 0 0 1-61.1 7.79c-104.38 0-182.5-65.31-207.53-155.64H12a12 12 0 0 1-12-12V284a12 12 0 0 1 12-12z" class="fa-primary"/></svg>
