<svg xmlns="http://www.w3.org/2000/svg" viewBox="0 0 576 512"><defs><style>.fa-secondary{opacity:.4}</style></defs><path d="M544 432h-53.63l-98.52-104.68 154.44-86.65a58.23 58.23 0 0 0-.77-102c-40.56-22.22-99-41.28-99-41.28a79.84 79.84 0 0 0-157.07.11C126.75 113-.5 250.12 0 417c.11 34.92 29.08 63 64 63h304a16 16 0 0 0 16-16 32 32 0 0 0-32-32h-79.49l35.8-48.33c24.14-36.23 10.35-88.28-33.71-106.6-23.89-9.93-51.55-4.65-72.24 10.88l-32.76 24.59a16 16 0 0 1-19.22-25.6l34.78-26.09a104.78 104.78 0 0 1 125.13 0c10.87 8.15 45.87 39.06 40.8 93.21L469.62 480H560a16 16 0 0 0 16-16 32 32 0 0 0-32-32zM320 112a48 48 0 1 1 48 48 48.05 48.05 0 0 1-48-48z" class="fa-secondary"/><path d="M384 112a16 16 0 1 1-16-16 16 16 0 0 1 16 16z" class="fa-primary"/></svg>
