<svg xmlns="http://www.w3.org/2000/svg" viewBox="0 0 640 512"><defs><style>.fa-secondary{opacity:.4}</style></defs><path d="M120 296H0v48h120a8 8 0 0 0 8-8v-32a8 8 0 0 0-8-8zm0 96H0v48h120a8 8 0 0 0 8-8v-32a8 8 0 0 0-8-8z" class="fa-secondary"/><path d="M638.4 29.94l-214.1 445.8A64 64 0 0 1 366.6 512H64a64.06 64.06 0 0 1-64-64v-8h120a8 8 0 0 0 8-8v-32a8 8 0 0 0-8-8H0v-48h120a8 8 0 0 0 8-8v-32a8 8 0 0 0-8-8H0v-26.9a64 64 0 0 1 75.8-62.9l389.7 73.1L595.2 9a15.91 15.91 0 0 1 21.4-7.4L631 8.54a16.14 16.14 0 0 1 7.4 21.4z" class="fa-primary"/></svg>
