<svg xmlns="http://www.w3.org/2000/svg" viewBox="0 0 448 512"><defs><style>.fa-secondary{opacity:.4}</style></defs><path d="M436 128h-74.81l14.62-81.89A12 12 0 0 0 364 32h-40.63a12 12 0 0 0-11.82 9.89L296.17 128h-98.63l14.62-81.89A12 12 0 0 0 200.35 32h-40.63a12 12 0 0 0-11.81 9.89L132.53 128h-79.1a12 12 0 0 0-11.81 9.89l-7.14 40A12 12 0 0 0 46.29 192h74.81L98.24 320H19.15a12 12 0 0 0-11.82 9.89l-7.14 40A12 12 0 0 0 12 384h74.81l-14.62 81.89A12 12 0 0 0 84 480h40.64a12 12 0 0 0 11.81-9.89L151.83 384h98.63l-14.62 81.89A12 12 0 0 0 247.65 480h40.63a12 12 0 0 0 11.82-9.89L315.47 384h79.1a12 12 0 0 0 11.81-9.89l7.14-40A12 12 0 0 0 401.71 320H326.9l22.86-128h79.09a12 12 0 0 0 11.82-9.89l7.14-40A12 12 0 0 0 436 128zM261.89 320h-98.64l22.86-128h98.64z" class="fa-primary"/></svg>
