<svg xmlns="http://www.w3.org/2000/svg" viewBox="0 0 512 512"><defs><style>.fa-secondary{opacity:.4}</style></defs><path d="M509.8 332.44l-69.9-164.3a123.53 123.53 0 0 0-93-79.2c18-10.6 46.3-35.9 34.2-82.3a9.29 9.29 0 0 0-12-6.1l-202.2 75.7C35.9 123.34 0 238.84 0 398.74v81.2a32 32 0 0 0 32 32h236.2a32 32 0 0 0 28.6-46.3l-40.8-81.7v-.7a127.8 127.8 0 0 1-104.3-69.6 7.92 7.92 0 0 1 1.6-9.3l12.1-12.1a8 8 0 0 1 12.9 2.4A95.47 95.47 0 0 0 265.7 352c17.2 0 33-5.1 46.8-13.2l46 63.9a31.9 31.9 0 0 0 26 13.3h50.3a31.94 31.94 0 0 0 22.6-9.4l45.3-39.8a32.45 32.45 0 0 0 7.1-34.36zM328 223.94a24 24 0 1 1 24-24 23.94 23.94 0 0 1-24 24z" class="fa-primary"/></svg>
