<svg xmlns="http://www.w3.org/2000/svg" viewBox="0 0 576 512"><defs><style>.fa-secondary{opacity:.4}</style></defs><path d="M544 96H416V32a32 32 0 0 0-32-32H192a32 32 0 0 0-32 32v64H32a32 32 0 0 0-32 32v368a16 16 0 0 0 16 16h544a16 16 0 0 0 16-16V128a32 32 0 0 0-32-32zM160 436a12 12 0 0 1-12 12h-40a12 12 0 0 1-12-12v-40a12 12 0 0 1 12-12h40a12 12 0 0 1 12 12zm0-128a12 12 0 0 1-12 12h-40a12 12 0 0 1-12-12v-40a12 12 0 0 1 12-12h40a12 12 0 0 1 12 12zm160 128a12 12 0 0 1-12 12h-40a12 12 0 0 1-12-12v-40a12 12 0 0 1 12-12h40a12 12 0 0 1 12 12zm0-128a12 12 0 0 1-12 12h-40a12 12 0 0 1-12-12v-40a12 12 0 0 1 12-12h40a12 12 0 0 1 12 12zm16-170a6 6 0 0 1-6 6h-26v26a6 6 0 0 1-6 6h-20a6 6 0 0 1-6-6v-26h-26a6 6 0 0 1-6-6v-20a6 6 0 0 1 6-6h26V86a6 6 0 0 1 6-6h20a6 6 0 0 1 6 6v26h26a6 6 0 0 1 6 6zm144 298a12 12 0 0 1-12 12h-40a12 12 0 0 1-12-12v-40a12 12 0 0 1 12-12h40a12 12 0 0 1 12 12zm0-128a12 12 0 0 1-12 12h-40a12 12 0 0 1-12-12v-40a12 12 0 0 1 12-12h40a12 12 0 0 1 12 12z" class="fa-secondary"/><path d="M336 138a6 6 0 0 1-6 6h-26v26a6 6 0 0 1-6 6h-20a6 6 0 0 1-6-6v-26h-26a6 6 0 0 1-6-6v-20a6 6 0 0 1 6-6h26V86a6 6 0 0 1 6-6h20a6 6 0 0 1 6 6v26h26a6 6 0 0 1 6 6z" class="fa-primary"/></svg>
