<svg xmlns="http://www.w3.org/2000/svg" viewBox="0 0 512 512"><defs><style>.fa-secondary{opacity:.4}</style></defs><path d="M512 440v48a24 24 0 0 1-24 24H352a32 32 0 0 1-32-32v-42.92c0-20.07 10.43-38.27 26.92-49.7A159.64 159.64 0 0 0 416 256c0-99.51-91.32-178.1-194.56-156.36-62.49 13.16-112.1 65.08-123 128-11.3 65.36 17.46 125.15 65.68 159.07C180.91 398.52 192 416.77 192 437.3V480a32 32 0 0 1-32 32H24a24 24 0 0 1-24-24v-48a24 24 0 0 1 24-24h32.61A254 254 0 0 1 0 256C0 104.82 131.74-16.18 286.45 1.77 399.19 14.85 492.12 104.36 509 216.6c11.41 75.72-10.75 146.23-53.64 199.4H488a24 24 0 0 1 24 24z" class="fa-primary"/></svg>
