<svg xmlns="http://www.w3.org/2000/svg" viewBox="0 0 512 512"><defs><style>.fa-secondary{opacity:.4}</style></defs><path d="M80 0a48 48 0 1 1-48 48A47.95 47.95 0 0 1 80 0z" class="fa-secondary"/><path d="M0 479.9a32 32 0 0 0 64 0v-74.5C48 391.7.5 350.8 0 350.3zm511.6-75.2l-8.2-30.9a8 8 0 0 0-9.8-5.7l-154.1 41.3a63.51 63.51 0 0 0-40.9-24.5l-59.4-221.6a8 8 0 0 0-9.8-5.7l-30.9 8.3a8 8 0 0 0-5.7 9.8l12.9 48.2h-39l-33.3-61.8a63.85 63.85 0 0 0-56.7-34.2H48a48 48 0 0 0-48 48v103a64.05 64.05 0 0 0 22.4 48.6l76 65.1 14.1 92.5c1 5.7 10.1 30.7 36.8 26.3a32 32 0 0 0 26.3-36.8l-14.1-92.5A64.41 64.41 0 0 0 140 344l-44-37.7V228l32 59.9h94.8l28.9 107.8a63.87 63.87 0 1 0 100 60.1l154.2-41.3a8 8 0 0 0 5.7-9.8zm-223 59.2a16 16 0 1 1 16-16 16 16 0 0 1-16 16z" class="fa-primary"/></svg>
