<svg xmlns="http://www.w3.org/2000/svg" viewBox="0 0 512 512"><defs><style>.fa-secondary{opacity:.4}</style></defs><path d="M384 160v207.16a16.84 16.84 0 0 0 30 10.51L431.8 356a24 24 0 0 1 33.73-3.75l37.46 30a24 24 0 0 1 3.75 33.75l-17.8 21.66c-26 32.47-67.36 48.21-109.62 40.34-54-10.06-91.32-60.44-91.32-115.42V160h-64v142.46a264.53 264.53 0 0 1-59.83 168.3C155 482 138.3 483.29 128.05 473l-34.11-34.07c-8.27-8.28-9.83-21.67-2.56-30.85A169.35 169.35 0 0 0 128 302.46V160H16c-14.22 0-21.36-17.23-11.28-27.31l49.94-49.95A64 64 0 0 1 99.91 64H488a24 24 0 0 1 24 24v48a24 24 0 0 1-24 24z" class="fa-primary"/></svg>
