<svg xmlns="http://www.w3.org/2000/svg" viewBox="0 0 448 512"><defs><style>.fa-secondary{opacity:.4}</style></defs><path d="M448 160v16a16 16 0 0 1-16 16H16a16 16 0 0 1-16-16v-16a16 16 0 0 1 16-16h49c6.66-52.85 45.81-95.52 96.69-108A47.89 47.89 0 0 1 208 0h64a48 48 0 0 1 0 96h-64a47.73 47.73 0 0 1-33.32-13.55c-31.15 7.25-54.81 31.26-61 61.55H432a16 16 0 0 1 16 16z" class="fa-secondary"/><path d="M400 464h-38.22L384 224H64l22.22 240H48a16 16 0 0 0-16 16v16a16 16 0 0 0 16 16h352a16 16 0 0 0 16-16v-16a16 16 0 0 0-16-16zM149 309.6l45.6-6.7 20.4-41.4a10 10 0 0 1 17.9 0l20.4 41.4 45.6 6.7a10.06 10.06 0 0 1 5.6 17.1l-33 32.2 7.8 45.5a10 10 0 0 1-14.5 10.5L224 393.4l-40.8 21.5a10 10 0 0 1-14.5-10.5l7.8-45.5-33-32.2a10 10 0 0 1 5.5-17.1z" class="fa-primary"/></svg>
