<svg xmlns="http://www.w3.org/2000/svg" viewBox="0 0 640 512"><defs><style>.fa-secondary{opacity:.4}</style></defs><path d="M616 32H248a23.94 23.94 0 0 0-24 24v112a23.94 23.94 0 0 0 24 24h368a23.94 23.94 0 0 0 24-24V56a23.94 23.94 0 0 0-24-24zm-40 96h-64V96h64zm40 192H248a23.94 23.94 0 0 0-24 24v112a23.94 23.94 0 0 0 24 24h368a23.94 23.94 0 0 0 24-24V344a23.94 23.94 0 0 0-24-24zm-40 96H352v-32h224z" class="fa-secondary"/><path d="M128 336a48 48 0 1 0-48 48 48 48 0 0 0 48-48zM96 128H64a64.06 64.06 0 0 0-64 64v16a16 16 0 0 0 16 16h128a16 16 0 0 0 16-16v-16a64.06 64.06 0 0 0-64-64zm0 288H64a64.06 64.06 0 0 0-64 64v16a16 16 0 0 0 16 16h128a16 16 0 0 0 16-16v-16a64.06 64.06 0 0 0-64-64zM80 96a48 48 0 1 0-48-48 48 48 0 0 0 48 48z" class="fa-primary"/></svg>
