<svg xmlns="http://www.w3.org/2000/svg" viewBox="0 0 640 512"><defs><style>.fa-secondary{opacity:.4}</style></defs><path d="M512 64.05H409.9l-27.6-55.2a16 16 0 0 0-28.6 0l-49.7 99.4-19.9-39.8a8 8 0 0 0-7.2-4.4H136a8 8 0 0 0-8 8v16a8 8 0 0 0 8 8h126.1l27.6 55.2a16 16 0 0 0 28.6 0l49.7-99.4 22.1 44.2H512a16 16 0 0 0 0-32zm-352 160a64 64 0 1 0 64 64 64.06 64.06 0 0 0-64-64z" class="fa-secondary"/><path d="M640 336.05v160a16 16 0 0 1-16 16h-32a16 16 0 0 1-16-16v-48H64v48a16 16 0 0 1-16 16H16a16 16 0 0 1-16-16v-352a16 16 0 0 1 16-16h32a16 16 0 0 1 16 16v240h192v-144a16 16 0 0 1 16-16h256a111.94 111.94 0 0 1 112 112z" class="fa-primary"/></svg>
