<svg xmlns="http://www.w3.org/2000/svg" viewBox="0 0 352 512"><defs><style>.fa-secondary{opacity:.4}</style></defs><path d="M176.42 0C96.6 0 44.91 32.7 4.32 91a24 24 0 0 0 5.17 32.9l43.14 32.71a24 24 0 0 0 33.26-4.15c25-31.38 43.63-49.45 82.75-49.45 30.77 0 68.82 19.8 68.82 49.63 0 22.55-18.62 34.14-49 51.17-35.43 19.86-82.3 44.57-82.3 106.4V320a24 24 0 0 0 24 24h72.47a24 24 0 0 0 24-24v-5.77c0-42.86 125.27-44.65 125.27-160.63C351.91 66.26 261.3 0 176.42 0zm-10 373.46a69.27 69.27 0 1 0 69.27 69.27 69.35 69.35 0 0 0-69.29-69.27z" class="fa-primary"/></svg>
