<svg xmlns="http://www.w3.org/2000/svg" viewBox="0 0 384 512"><defs><style>.fa-secondary{opacity:.4}</style></defs><path d="M239.36 320C324.48 320 384 260.54 384 175.07S324.48 32 239.36 32H76a12 12 0 0 0-12 12v206.63H12a12 12 0 0 0-12 12V308a12 12 0 0 0 12 12h52v32H12a12 12 0 0 0-12 12v40a12 12 0 0 0 12 12h52v52a12 12 0 0 0 12 12h58.56a12 12 0 0 0 12-12v-52H308a12 12 0 0 0 12-12v-40a12 12 0 0 0-12-12H146.56v-32zm-92.8-219.25h78.72c46.72 0 74.88 29.11 74.88 74.32 0 45.83-28.16 75.56-76.16 75.56h-77.44z" class="fa-primary"/></svg>
