<svg xmlns="http://www.w3.org/2000/svg" viewBox="0 0 512 512"><defs><style>.fa-secondary{opacity:.4}</style></defs><path d="M209.3 96a16.13 16.13 0 0 0-17.3 16.1v32.1a15.94 15.94 0 0 0 14.8 15.9c76.8 6.3 138 68.2 144.9 145.2a16.07 16.07 0 0 0 15.9 14.7h32.2a16.19 16.19 0 0 0 16.1-17.3C407.5 192.62 319.4 104.52 209.3 96zm302.6 207C503.4 139.82 372.2 8.62 209 0a16.1 16.1 0 0 0-17 16v31.6a15.84 15.84 0 0 0 15 15.9c129.4 7 233.4 112 240.9 241.5a16 16 0 0 0 15.9 15h32.1a16.1 16.1 0 0 0 16-17z" class="fa-secondary"/><path d="M302.4 487.52c-77.7 41.8-176.7 29.9-242.3-35.7s-77.5-164.5-35.7-242.3c4.9-9.1 17.7-10.3 25-3l116.8 116.8 27.4-27.4c-.7-2.6-1.6-5-1.6-7.8a32 32 0 1 1 32 32c-2.8 0-5.2-.9-7.8-1.6l-27.4 27.4 116.6 116.6c7.4 7.3 6.2 20.1-3 25z" class="fa-primary"/></svg>
