<svg xmlns="http://www.w3.org/2000/svg" viewBox="0 0 576 512"><defs><style>.fa-secondary{opacity:.4}</style></defs><path d="M312 0h-16a8 8 0 0 0-8 8v56h32V8a8 8 0 0 0-8-8zm256 0h-48a8 8 0 0 0-8 8v272a8 8 0 0 0 8 8h48a8 8 0 0 0 8-8V8a8 8 0 0 0-8-8zM248 0h-48a8 8 0 0 0-8 8v56h64V8a8 8 0 0 0-8-8zm224 0h-16a8 8 0 0 0-8 8v272a8 8 0 0 0 8 8h16a8 8 0 0 0 8-8V8a8 8 0 0 0-8-8zm-64 0h-48a8 8 0 0 0-8 8v56h64V8a8 8 0 0 0-8-8z" class="fa-secondary"/><path d="M400 96H16a16 16 0 0 0-16 16v137.4a16.06 16.06 0 0 0 4.7 11.3L32 288v176a48 48 0 0 0 48 48h256a48 48 0 0 0 48-48V288l27.3-27.3a16.06 16.06 0 0 0 4.7-11.3V112a16 16 0 0 0-16-16zm-80 336a16 16 0 0 1-16 16H112a16 16 0 0 1-16-16V176a16 16 0 0 1 16-16h192a16 16 0 0 1 16 16z" class="fa-primary"/></svg>
