<svg xmlns="http://www.w3.org/2000/svg" viewBox="0 0 640 512"><defs><style>.fa-secondary{opacity:.4}</style></defs><path d="M464 352a80 80 0 1 0 80 80 80 80 0 0 0-80-80zm-288 0a80 80 0 1 0 80 80 80 80 0 0 0-80-80z" class="fa-secondary"/><path d="M624 352h-16V243.9a48 48 0 0 0-14.1-33.9L494 110.1A48 48 0 0 0 460.1 96H416V48a48 48 0 0 0-48-48H112a48 48 0 0 0-48 48v48H8a8 8 0 0 0-8 8v16a8 8 0 0 0 8 8h272a8 8 0 0 1 8 8v16a8 8 0 0 1-8 8H40a8 8 0 0 0-8 8v16a8 8 0 0 0 8 8h208a8 8 0 0 1 8 8v16a8 8 0 0 1-8 8H8a8 8 0 0 0-8 8v16a8 8 0 0 0 8 8h208a8 8 0 0 1 8 8v16a8 8 0 0 1-8 8H64v80a47.74 47.74 0 0 0 7 25 112 112 0 0 1 215.86 23h66.28a112 112 0 0 1 221.72 0H624a16 16 0 0 0 16-16v-32a16 16 0 0 0-16-16zm-64-96H416V144h44.1l99.9 99.9z" class="fa-primary"/></svg>
