<svg xmlns="http://www.w3.org/2000/svg" viewBox="0 0 480 512"><defs><style>.fa-secondary{opacity:.4}</style></defs><path d="M8 334.43L143.94 256 8 177.57a16 16 0 0 1-5.86-21.86l32-55.42A16 16 0 0 1 56 94.43l136 78.43V16a16 16 0 0 1 16-16h64a16 16 0 0 1 16 16v156.85l136-78.43a16 16 0 0 1 21.87 5.86l32 55.43a16 16 0 0 1-5.87 21.86L336.06 256 472 334.43a16 16 0 0 1 5.86 21.85l-32 55.43a16 16 0 0 1-21.86 5.86l-136-78.43V496a16 16 0 0 1-16 16h-64a16 16 0 0 1-16-16V339.15L56 417.58a16 16 0 0 1-21.87-5.86l-32-55.43A16 16 0 0 1 8 334.43z" class="fa-primary"/></svg>
