<svg xmlns="http://www.w3.org/2000/svg" viewBox="0 0 512 512"><defs><style>.fa-secondary{opacity:.4}</style></defs><path d="M480.06 320H373.29L187.15 506.51c-2.06 2.07-4.49 3.58-6.67 5.49h299.58A32 32 0 0 0 512 480V352a32 32 0 0 0-31.94-32zm-44.5-152.9l-90.33-90.51a31.89 31.89 0 0 0-45.17 0l-75.5 75.65V416c0 3-.67 5.73-.87 8.64l211.87-212.28a32.05 32.05 0 0 0 0-45.26z" class="fa-secondary"/><path d="M159.68 0H31.94A32 32 0 0 0 0 32v384a95.81 95.81 0 1 0 191.62 0V32a32 32 0 0 0-31.94-32zM95.81 440a24 24 0 1 1 24-24 24 24 0 0 1-24 24zm32-184H63.88v-64h63.88zm0-128H63.88V64h63.88z" class="fa-primary"/></svg>
