<svg xmlns="http://www.w3.org/2000/svg" viewBox="0 0 512 512"><defs><style>.fa-secondary{opacity:.4}</style></defs><path d="M289 432h175v-32H289zm64-352v32h111V80zM161 272h303v-32H161z" class="fa-secondary"/><path d="M488 192H24a23.94 23.94 0 0 0-24 24v80a23.94 23.94 0 0 0 24 24h464a23.94 23.94 0 0 0 24-24v-80a23.94 23.94 0 0 0-24-24zm-24 80H161v-32h303zm24 80H24a23.94 23.94 0 0 0-24 24v80a23.94 23.94 0 0 0 24 24h464a23.94 23.94 0 0 0 24-24v-80a23.94 23.94 0 0 0-24-24zm-24 80H289v-32h175zm24-400H24A23.94 23.94 0 0 0 0 56v80a23.94 23.94 0 0 0 24 24h464a23.94 23.94 0 0 0 24-24V56a23.94 23.94 0 0 0-24-24zm-24 80H353V80h111z" class="fa-primary"/></svg>
