<svg xmlns="http://www.w3.org/2000/svg" viewBox="0 0 352 512"><defs><style>.fa-secondary{opacity:.4}</style></defs><path d="M342.79 155.93L242.72 256l100.07 100.07a31.46 31.46 0 0 1 0 44.48l-22.24 22.24a31.46 31.46 0 0 1-44.48 0L176 322.72 75.93 422.79a31.46 31.46 0 0 1-44.48 0L9.21 400.55a31.46 31.46 0 0 1 0-44.48L109.28 256 9.21 155.93a31.46 31.46 0 0 1 0-44.48l22.24-22.24a31.46 31.46 0 0 1 44.48 0L176 189.28 276.07 89.21a31.46 31.46 0 0 1 44.48 0l22.24 22.24a31.46 31.46 0 0 1 0 44.48z" class="fa-primary"/></svg>
