<svg xmlns="http://www.w3.org/2000/svg" viewBox="0 0 512 512"><defs><style>.fa-secondary{opacity:.4}</style></defs><path d="M192 160h-64V80a48 48 0 0 1 48-48h160a48 48 0 0 1 48 48v80h-64V96H192z" class="fa-secondary"/><path d="M384 368a16 16 0 0 1-16 16h-32a16 16 0 0 1-16-16v-16H192v16a16 16 0 0 1-16 16h-32a16 16 0 0 1-16-16v-16H0v96a32 32 0 0 0 32 32h448a32 32 0 0 0 32-32v-96H384zm118.63-153.37l-45.25-45.25a32 32 0 0 0-22.63-9.38H77.25a32 32 0 0 0-22.63 9.37L9.37 214.63A32 32 0 0 0 0 237.26V320h128v-16a16 16 0 0 1 16-16h32a16 16 0 0 1 16 16v16h128v-16a16 16 0 0 1 16-16h32a16 16 0 0 1 16 16v16h128v-82.75a32 32 0 0 0-9.37-22.62z" class="fa-primary"/></svg>
