<svg xmlns="http://www.w3.org/2000/svg" viewBox="0 0 640 512"><defs><style>.fa-secondary{opacity:.4}</style></defs><path d="M640 403l-24-296a12 12 0 0 0-12-11h-65.4a12 12 0 0 0-11.3 8.1l-43.8 127.1c-7.2 20.6-16.1 52.8-16.1 52.8h-.9s-8.9-32.2-16.1-52.8l-43.8-127.1a12.06 12.06 0 0 0-11.3-8.1h-65.4a12.14 12.14 0 0 0-12 11l-24.4 296a12 12 0 0 0 12 13H360a12.09 12.09 0 0 0 12-11.2l9.1-132.9c1.8-24.2 0-53.7 0-53.7h.9s10.7 33.6 17.9 53.7l30.7 84.7a12 12 0 0 0 11.3 7.9h50.3a12 12 0 0 0 11.3-7.9l30.7-84.7c7.2-20.1 17.9-53.7 17.9-53.7h.9s-1.8 29.5 0 53.7l9.1 132.9a12 12 0 0 0 12 11.2H628a12.09 12.09 0 0 0 12-13zM260.6 96H12a12 12 0 0 0-12 12v43.1a12 12 0 0 0 12 12h85.1V404a12 12 0 0 0 12 12h54.3a12 12 0 0 0 12-12V163.1h85.1a12 12 0 0 0 12-12V108a11.89 11.89 0 0 0-11.9-12z" class="fa-primary"/></svg>
