<svg xmlns="http://www.w3.org/2000/svg" viewBox="0 0 576 512"><defs><style>.fa-secondary{opacity:.4}</style></defs><path d="M564 191.3a12 12 0 0 0 12-12v-40a12 12 0 0 0-12-12h-48l18.6-80.6A12 12 0 0 0 522.9 32h-46.1a11.9 11.9 0 0 0-11.7 9.5l-14.4 85.8H340.8l-19.7-86a12 12 0 0 0-11.7-9.3h-44a12 12 0 0 0-11.7 9.3l-20 86H125l-17.5-85.7A12 12 0 0 0 95.7 32H53.6a12 12 0 0 0-11.7 14.6L60 127.3H12a12 12 0 0 0-12 12v40a12 12 0 0 0 12 12h62.3l7.2 32H12a12 12 0 0 0-12 12v40a12 12 0 0 0 12 12h83.9l40.9 182.6a12 12 0 0 0 11.7 9.4h56.8A12.08 12.08 0 0 0 217 470l42.3-182.7h55.1L356.8 470a12.08 12.08 0 0 0 11.7 9.3h56.8A12.08 12.08 0 0 0 437 470l42.1-182.7H564a12 12 0 0 0 12-12v-40a12 12 0 0 0-12-12h-70.1l7.4-32zm-380.2 150c-6.2 25.8-6.8 47.2-7.3 47.2h-1.1a436.6 436.6 0 0 0-6.8-47.2l-11-54h38.8zm27.5-118h-66.8l-6.5-32h80.8zm62.9 0l2-8.6c1.9-8 3.5-16 4.8-23.4h11.8c1.3 7.4 2.9 15.4 4.8 23.4l2 8.6zm130.9 118a436.6 436.6 0 0 0-6.8 47.2h-1.1c-.6 0-1.1-21.4-7.3-47.2l-12.4-54h39.1zm25.2-118h-67.4l-7.3-32h81.6z" class="fa-primary"/></svg>
