<svg xmlns="http://www.w3.org/2000/svg" viewBox="0 0 320 512"><defs><style>.fa-secondary{opacity:.4}</style></defs><path d="M296 256h-44.62C272.46 222 288 181.65 288 144 288 55.63 230.69 0 160 0S32 55.63 32 144c0 37.65 15.54 78 36.62 112H24a24 24 0 0 0-24 24v32a24 24 0 0 0 24 24h96v152a24 24 0 0 0 24 24h32a24 24 0 0 0 24-24V336h96a24 24 0 0 0 24-24v-32a24 24 0 0 0-24-24zM160 80c29.61 0 48 24.52 48 64 0 34.66-27.14 78.14-48 100.87-20.86-22.72-48-66.21-48-100.87 0-39.48 18.39-64 48-64z" class="fa-primary"/></svg>
