<svg xmlns="http://www.w3.org/2000/svg" viewBox="0 0 512 512"><defs><style>.fa-secondary{opacity:.4}</style></defs><path d="M502.63 278.63l-74 74a24 24 0 0 1-33.94 0l-10.84-10.84a24 24 0 0 1 .47-34.4L405.91 288H288v117.91l19.39-21.6a24 24 0 0 1 34.4-.47l10.84 10.84a24 24 0 0 1 0 33.94l-74 74a32 32 0 0 1-45.26 0l-74-74a24 24 0 0 1 0-33.94l10.85-10.84a24 24 0 0 1 34.4.47l19.38 21.6V288H106.09l21.6 19.39a24 24 0 0 1 .47 34.4l-10.84 10.84a24 24 0 0 1-33.94 0l-74-74a32 32 0 0 1 0-45.26l74-74a24 24 0 0 1 33.94 0l10.84 10.84a24 24 0 0 1-.47 34.4L106.09 224H224V106.09l-19.39 21.6a24 24 0 0 1-34.4.47l-10.84-10.84a24 24 0 0 1 0-33.94l74-74a32 32 0 0 1 45.26 0l74 74a24 24 0 0 1 0 33.94l-10.84 10.84a24 24 0 0 1-34.4-.47L288 106.09V224h117.91l-21.6-19.39a24 24 0 0 1-.47-34.4l10.84-10.84a24 24 0 0 1 33.94 0l74 74a32 32 0 0 1 .01 45.26z" class="fa-primary"/></svg>
