<svg xmlns="http://www.w3.org/2000/svg" viewBox="0 0 512 512"><defs><style>.fa-secondary{opacity:.4}</style></defs><path d="M288 256a32 32 0 1 1-32-32 32 32 0 0 1 32 32z" class="fa-secondary"/><path d="M500 224h-30.36A216.16 216.16 0 0 0 288 42.36V12a12 12 0 0 0-12-12h-40a12 12 0 0 0-12 12v30.36A216.16 216.16 0 0 0 42.36 224H12a12 12 0 0 0-12 12v40a12 12 0 0 0 12 12h30.36A216.16 216.16 0 0 0 224 469.64V500a12 12 0 0 0 12 12h40a12 12 0 0 0 12-12v-30.36A216.16 216.16 0 0 0 469.64 288H500a12 12 0 0 0 12-12v-40a12 12 0 0 0-12-12zm-136 64h40.63A152.15 152.15 0 0 1 288 404.63V364a12 12 0 0 0-12-12h-40a12 12 0 0 0-12 12v40.63A152.15 152.15 0 0 1 107.37 288H148a12 12 0 0 0 12-12v-40a12 12 0 0 0-12-12h-40.63A152.15 152.15 0 0 1 224 107.37V148a12 12 0 0 0 12 12h40a12 12 0 0 0 12-12v-40.63A152.15 152.15 0 0 1 404.63 224H364a12 12 0 0 0-12 12v40a12 12 0 0 0 12 12z" class="fa-primary"/></svg>
