<svg xmlns="http://www.w3.org/2000/svg" viewBox="0 0 640 512"><defs><style>.fa-secondary{opacity:.4}</style></defs><path d="M592 32a16 16 0 0 1 16 16v256a16 16 0 0 1-16 16H208a16 16 0 0 1-16-16V48a16 16 0 0 1 16-16z" class="fa-secondary"/><path d="M624 384H128V16a16 16 0 0 0-16-16H16A16 16 0 0 0 0 16v32a16 16 0 0 0 16 16h48v368a16 16 0 0 0 16 16h82.9a47.27 47.27 0 0 0-2.9 16 48 48 0 0 0 96 0 49.85 49.85 0 0 0-2.9-16H451a47.27 47.27 0 0 0-2.9 16 48 48 0 0 0 96 0 49.85 49.85 0 0 0-2.9-16H624a16 16 0 0 0 16-16v-32a16 16 0 0 0-16-16zM448 160V32h-96v128l48-32z" class="fa-primary"/></svg>
