<svg xmlns="http://www.w3.org/2000/svg" viewBox="0 0 192 512"><defs><style>.fa-secondary{opacity:.4}</style></defs><path d="M96 94a14 14 0 1 0-14-14 14 14 0 0 0 14 14zm0 148a14 14 0 1 0 14 14 14 14 0 0 0-14-14zm0 176a14 14 0 1 0 14 14 14 14 0 0 0-14-14z" class="fa-secondary"/><path d="M96 152a72 72 0 1 0-72-72 72 72 0 0 0 72 72zm0-86a14 14 0 1 1-14 14 14 14 0 0 1 14-14zm0 118a72 72 0 1 0 72 72 72 72 0 0 0-72-72zm0 86a14 14 0 1 1 14-14 14 14 0 0 1-14 14zm0 90a72 72 0 1 0 72 72 72 72 0 0 0-72-72zm0 86a14 14 0 1 1 14-14 14 14 0 0 1-14 14z" class="fa-primary"/></svg>
