<svg xmlns="http://www.w3.org/2000/svg" viewBox="0 0 512 512"><defs><style>.fa-secondary{opacity:.4}</style></defs><path d="M488 64h-8v20a12 12 0 0 1-12 12h-40a12 12 0 0 1-12-12V64H96v20a12 12 0 0 1-12 12H44a12 12 0 0 1-12-12V64h-8A23.94 23.94 0 0 0 0 88v336a23.94 23.94 0 0 0 24 24h8v-20a12 12 0 0 1 12-12h40a12 12 0 0 1 12 12v20h320v-20a12 12 0 0 1 12-12h40a12 12 0 0 1 12 12v20h8a23.94 23.94 0 0 0 24-24V88a23.94 23.94 0 0 0-24-24zM96 372a12 12 0 0 1-12 12H44a12 12 0 0 1-12-12v-40a12 12 0 0 1 12-12h40a12 12 0 0 1 12 12zm0-96a12 12 0 0 1-12 12H44a12 12 0 0 1-12-12v-40a12 12 0 0 1 12-12h40a12 12 0 0 1 12 12zm0-96a12 12 0 0 1-12 12H44a12 12 0 0 1-12-12v-40a12 12 0 0 1 12-12h40a12 12 0 0 1 12 12zm384 192a12 12 0 0 1-12 12h-40a12 12 0 0 1-12-12v-40a12 12 0 0 1 12-12h40a12 12 0 0 1 12 12zm0-96a12 12 0 0 1-12 12h-40a12 12 0 0 1-12-12v-40a12 12 0 0 1 12-12h40a12 12 0 0 1 12 12zm0-96a12 12 0 0 1-12 12h-40a12 12 0 0 1-12-12v-40a12 12 0 0 1 12-12h40a12 12 0 0 1 12 12z" class="fa-primary"/></svg>
