<svg xmlns="http://www.w3.org/2000/svg" viewBox="0 0 512 512"><defs><style>.fa-secondary{opacity:.4}</style></defs><path d="M448 0H320a64 64 0 0 0-64 64v153.6L4.69 468.91a16 16 0 0 0 0 22.63l15.77 15.77a16 16 0 0 0 22.63 0l36.25-36.25 36.11 36.11a16 16 0 0 0 22.63 0L181.24 464a16 16 0 0 0 0-22.63l-36.11-36.11L176 374.4l36.91 36.91a16 16 0 0 0 22.63 0l15.77-15.77a16 16 0 0 0 0-22.63L214.4 336l80-80H448a64 64 0 0 0 64-64V64a64 64 0 0 0-64-64zm-73.37 182.63a32 32 0 1 1 0-45.25 32 32 0 0 1 0 45.25zm64-64a32 32 0 1 1 0-45.25 32 32 0 0 1 0 45.25z" class="fa-primary"/></svg>
