<svg xmlns="http://www.w3.org/2000/svg" viewBox="0 0 512 512"><defs><style>.fa-secondary{opacity:.4}</style></defs><path d="M497.88 74.12L437.78 14a48.1 48.1 0 0 0-67.9 0l-46.1 46.1a12 12 0 0 0 0 17l111 111a12 12 0 0 0 17 0l46.1-46.1a47.92 47.92 0 0 0 0-67.88zM88 375.93H51.68l-11.3 64.49 31.1 31.1 64.5-11.3v-36.29H88z" class="fa-secondary"/><path d="M412.28 210.72l-111-111a12.13 12.13 0 0 0-17.1 0l-262.6 262.6-21.2 121.5a24 24 0 0 0 27.8 27.8l121.5-21.3 262.6-262.6a12 12 0 0 0 0-17zM136 460.22l-64.5 11.3-31.1-31.1 11.3-64.49H88v48h48z" class="fa-primary"/></svg>
