<svg xmlns="http://www.w3.org/2000/svg" viewBox="0 0 384 512"><defs><style>.fa-secondary{opacity:.4}</style></defs><path d="M301.26 352l78.06-78.06a16 16 0 0 0 0-22.63l-22.63-22.63a16 16 0 0 0-22.63 0L256 306.74l-84-84c47.27-6 84-45.89 84-94.78a96 96 0 0 0-96-96H16A16 16 0 0 0 0 48v256a16 16 0 0 0 16 16h32a16 16 0 0 0 16-16v-80h18.75l128 128-78.06 78.06a16 16 0 0 0 0 22.63l22.63 22.63a16 16 0 0 0 22.63 0L256 397.25l78.06 78.06a16 16 0 0 0 22.63 0l22.63-22.63a16 16 0 0 0 0-22.63zM64 160V96h96a32 32 0 0 1 0 64z" class="fa-primary"/></svg>
