<svg xmlns="http://www.w3.org/2000/svg" viewBox="0 0 512 512"><defs><style>.fa-secondary{opacity:.4}</style></defs><path d="M105.23 151.1a32 32 0 0 1 0-45.1l96.7-96.7a31.64 31.64 0 0 1 22.5-9.3A32 32 0 0 1 247 9.3l80.26 80.29-34 34-68.83-68.89-73.8 73.8 68.93 68.93-34 34zM502.63 265l-80.38-80.42-34 34h.05l68.9 68.9-73.8 73.8-68.9-68.9-34 34 80.35 80.35a31.87 31.87 0 0 0 45 0l96.7-96.7a31.78 31.78 0 0 0 .08-45.03z" class="fa-secondary"/><path d="M470.13 136.7l-199.5 199.5a190.56 190.56 0 0 1-5.4 168.5c-4.5 8.5-16.4 9.6-23.2 2.8L134.53 400l-17.8 17.8c.7 2.6 1.6 5 1.6 7.8a32 32 0 1 1-32-32c2.8 0 5.2.9 7.8 1.6l17.8-17.8L4.43 269.9c-6.8-6.8-5.7-18.6 2.8-23.2a190.56 190.56 0 0 1 168.5-5.4l199.4-199.6a33.62 33.62 0 0 1 47.5 0l47.5 47.5a33.62 33.62 0 0 1 0 47.5z" class="fa-primary"/></svg>
