<svg xmlns="http://www.w3.org/2000/svg" viewBox="0 0 640 512"><defs><style>.fa-secondary{opacity:.4}</style></defs><path d="M636 272l-27.92-16L636 240a8 8 0 0 0 2.9-10.9l-8-13.9a8 8 0 0 0-10.9-2.9l-28 16.1V200a8 8 0 0 0-8-8h-16a8 8 0 0 0-8 8v28.4l-28-16.1a8 8 0 0 0-10.91 2.9l-8 13.9A8 8 0 0 0 516 240l27.92 16L516 272a8 8 0 0 0-2.9 10.9l8 13.9a8 8 0 0 0 10.9 2.9l28-16.1V312a8 8 0 0 0 8 8h16a8 8 0 0 0 8-8v-28.4l28 16.1a8 8 0 0 0 10.91-2.9l8-13.9A8 8 0 0 0 636 272zM528 120a8 8 0 0 0 8 8h16a8 8 0 0 0 8-8V91.6l28 16.1a8 8 0 0 0 10.91-2.9l8-13.9A8 8 0 0 0 604 80l-27.89-16L604 48a8 8 0 0 0 2.9-10.9l-8-13.9a8 8 0 0 0-10.9-2.9l-28 16.1V8a8 8 0 0 0-8-8h-16a8 8 0 0 0-8 8v28.4l-28-16.1a8 8 0 0 0-10.91 2.9l-8 13.9A8 8 0 0 0 484 48l27.92 16L484 80a8 8 0 0 0-2.9 10.9l8 13.9a8 8 0 0 0 10.9 2.9l28-16.1z" class="fa-secondary"/><path d="M445.9 145.7a15.45 15.45 0 0 1-5.7 21.2l-33.8 19.5 26 7a15.47 15.47 0 0 1 10.9 18.9l-4 14.9a15.47 15.47 0 0 1-18.9 10.9l-70.79-19-63.8 36.9 63.8 36.9 70.79-19a15.47 15.47 0 0 1 18.9 10.9l4 14.9a15.47 15.47 0 0 1-10.9 18.9l-26 7 33.8 19.5a15.43 15.43 0 0 1 5.7 21.1L430.4 393a15.43 15.43 0 0 1-21.1 5.7l-33.79-19.5 7 26a15.46 15.46 0 0 1-10.89 18.9l-14.9 4a15.47 15.47 0 0 1-18.9-10.9l-19-70.8L256 310.2v77.5l53.4 53.7a16.06 16.06 0 0 1 0 22.6l-11.3 11.3a16.06 16.06 0 0 1-22.6 0l-19.7-19.7V496a16 16 0 0 1-16 16h-32a16 16 0 0 1-16-16v-40.3l-19.7 19.7a16.06 16.06 0 0 1-22.6 0l-11.3-11.3a16.06 16.06 0 0 1 0-22.6l53.7-53.7v-77.5l-62.8 36.2-19 70.8a15.47 15.47 0 0 1-18.9 10.9l-14.9-4a15.47 15.47 0 0 1-10.9-18.9l7-26-33.8 19.5a15.51 15.51 0 0 1-21.1-5.7L2 366.3a15.51 15.51 0 0 1 5.7-21.1l33.8-19.6-26-7a15.47 15.47 0 0 1-10.9-18.9l4-14.9a15.47 15.47 0 0 1 18.9-10.9l70.8 19 63.82-36.9-63.79-36.9-70.8 19a15.47 15.47 0 0 1-18.9-10.9l-4-14.9a15.51 15.51 0 0 1 11-19l26-7-33.8-19.5a15.43 15.43 0 0 1-5.7-21.1l15.5-26.7a15.43 15.43 0 0 1 21.1-5.7l33.8 19.5-7-26a15.47 15.47 0 0 1 10.9-18.9l14.9-4a15.47 15.47 0 0 1 18.9 10.9l19 70.8L192 201.8v-77.5l-53.7-53.7a16.06 16.06 0 0 1 0-22.6l11.4-11.3a16.06 16.06 0 0 1 22.6 0L192 56.4V16a16 16 0 0 1 16-16h32a16 16 0 0 1 16 16v40.4l19.8-19.7a16.06 16.06 0 0 1 22.6 0L309.71 48a16.06 16.06 0 0 1 0 22.6L256 124.3v77.5l62.8-36.3 19-70.8a15.47 15.47 0 0 1 18.9-10.9l14.9 4a15.46 15.46 0 0 1 10.89 18.9l-7 26 33.79-19.5a15.51 15.51 0 0 1 21.1 5.7l15.5 26.8z" class="fa-primary"/></svg>
