<svg xmlns="http://www.w3.org/2000/svg" viewBox="0 0 512 512"><defs><style>.fa-secondary{opacity:.4}</style></defs><path d="M296.2 375.1c.2 37.5 1.4 52.6 53 75.6 13.6 6 21.2 20.6 18.4 35.2-2.9 15.2-16.6 26-32.1 26H176.1c-14.9 0-27.8-10.3-31.2-24.8-3.5-15 4.6-30.3 18.7-36.6 51.6-23.1 52.3-38.8 52.4-75.4-23.6 26.2-57.3 41-92.5 40.9C54.9 415.7 0 360 0 289.5c0-31.2 12.7-59.3 32-80.6C53.6 185 191.4 52.4 239.4 6.6c9.3-8.8 23.8-8.8 33.1 0C320.6 52.4 458.4 185 480.2 208.8c45.9 50.8 42 129.2-8.9 175.2s-129.2 41.9-175.1-8.9z" class="fa-primary"/></svg>
