<svg xmlns="http://www.w3.org/2000/svg" viewBox="0 0 512 512"><defs><style>.fa-secondary{opacity:.4}</style></defs><path d="M512 80v103.86a80 80 0 0 1-58 76.92l-10.46 3L424 297.57a16 16 0 0 1-21.86 5.86l-32.25-18.62-84.82 24.24a80.05 80.05 0 0 0-34.62 20.37L74.9 505a24 24 0 0 1-33.9 0L7 471a24 24 0 0 1 0-33.9l89-89V304a16 16 0 0 1 16-16h44.12l26.48-26.48a176.06 176.06 0 0 1 76.11-44.78L416 171.8V96h-50.33l-11.58 23.15a16 16 0 0 1-21.47 7.16l-57.25-28.63a16 16 0 0 1-7.15-21.46l16-32A80 80 0 0 1 355.77 0H432a80 80 0 0 1 80 80z" class="fa-primary"/></svg>
