<svg xmlns="http://www.w3.org/2000/svg" viewBox="0 0 464 512"><defs><style>.fa-secondary{opacity:.4}</style></defs><path d="M458.9 345.39L405.68 256l53.21-89.39c14.41-24.21-3.41-54.61-32-54.61H320l-56-94a37.44 37.44 0 0 0-64 0l-56 94H37.11c-28.6 0-46.42 30.4-32 54.61L58.32 256 5.1 345.39C-9.31 369.6 8.51 400 37.11 400H144l56 94a37.44 37.44 0 0 0 64 0l56-94h106.89c28.6 0 46.42-30.4 32.01-54.61zM232 73.72L254.79 112h-45.57zM71.1 344l19.8-33.26L110.7 344zm19.8-142.74L71.1 168h39.6zm141.1 237L209.21 400h45.57zM288.12 344H175.88l-52.39-88 52.38-88h112.25l52.39 88zm65.17 0l19.8-33.26L392.9 344zm19.81-142.74L353.3 168h39.6z" class="fa-primary"/></svg>
