<svg xmlns="http://www.w3.org/2000/svg" viewBox="0 0 512 512"><defs><style>.fa-secondary{opacity:.4}</style></defs><path d="M80 0L53.34 53.34 0 80l53.34 26.67L80 160l26.66-53.33L160 80l-53.34-26.67zm144 0l-16 32-32 16 32 16 16 32 16-32 32-16-32-16zm234.66 341.33L432 288l-26.66 53.33L352 368l53.34 26.67L432 448l26.66-53.33L512 368z" class="fa-secondary"/><path d="M186.6 256L465.79 4.14a16 16 0 0 1 22 .55l19.48 19.47a16 16 0 0 1 .55 22.05L416 148v28a16 16 0 0 1-16 16h-23.66L97.16 501.47a32 32 0 0 1-46.36 1.16L9.37 461.2a32 32 0 0 1 1.16-46.36L128 308.87V272a16 16 0 0 1 16-16z" class="fa-primary"/></svg>
