<svg xmlns="http://www.w3.org/2000/svg" viewBox="0 0 288 512"><defs><style>.fa-secondary{opacity:.4}</style></defs><path d="M211.62 64l12 134.36a79.7 79.7 0 0 1-15.28 55.26 81.11 81.11 0 0 1-46.84 30.85 77.56 77.56 0 0 1-35 0 81.08 81.08 0 0 1-46.84-30.85 79.69 79.69 0 0 1-15.29-55.26L76.38 64h135.24m44.12-64H32.26a15.85 15.85 0 0 0-15.7 14.55L.6 192.66A144.65 144.65 0 0 0 112 346.82V464H72a40 40 0 0 0-40 40 8 8 0 0 0 8 8h208a8 8 0 0 0 8-8 40 40 0 0 0-40-40h-40V346.81a144.65 144.65 0 0 0 111.4-154.16l-15.95-178.1A15.86 15.86 0 0 0 255.74 0z" class="fa-primary"/></svg>
