<svg xmlns="http://www.w3.org/2000/svg" viewBox="0 0 512 512"><defs><style>.fa-secondary{opacity:.4}</style></defs><path d="M152 331.73a24 24 0 0 1 .48 34.4L141.66 377a24 24 0 0 1-33.94 0L9.37 278.63a32 32 0 0 1 0-45.26L107.72 135a24 24 0 0 1 33.94 0l10.84 10.84a24 24 0 0 1-.48 34.4L105.81 224h300.38L360 180.27a24 24 0 0 1-.48-34.4L370.34 135a24 24 0 0 1 33.94 0l98.35 98.34a32 32 0 0 1 0 45.26L404.28 377a24 24 0 0 1-33.94 0l-10.84-10.87a24 24 0 0 1 .48-34.4L406.19 288H105.81z" class="fa-primary"/></svg>
