<svg xmlns="http://www.w3.org/2000/svg" viewBox="0 0 512 512"><defs><style>.fa-secondary{opacity:.4}</style></defs><path d="M504.93 272.93l-79.7 79C410 367 384 356.34 384 335v-47h-96v96h47c21.33 0 32 26 16.93 41.23l-79 79.7a23.8 23.8 0 0 1-33.86 0l-79-79.7C145 410 155.66 384 177 384h47v-96h-96v47c0 21.33-26 32-41.23 16.93l-79.7-79a23.8 23.8 0 0 1 0-33.86l79.7-79C102 145 128 155.66 128 177v47h96v-96h-47c-21.33 0-32-26-16.93-41.23l79-79.7a23.8 23.8 0 0 1 33.86 0l79 79.7C367 102 356.34 128 335 128h-47v96h96v-47c0-21.33 26-32 41.23-16.93l79.7 79a23.8 23.8 0 0 1 0 33.86z" class="fa-primary"/></svg>
