<svg xmlns="http://www.w3.org/2000/svg" viewBox="0 0 512 512"><defs><style>.fa-secondary{opacity:.4}</style></defs><path d="M487.77 367.13l-19.5 33.74a24.06 24.06 0 0 1-33.27 8.52l-138.94-84.11 3.48 162.21a24 24 0 0 1-24 24.51h-39a24 24 0 0 1-24-24.51l3.48-162.21L77 409.39a24.06 24.06 0 0 1-33.28-8.52l-19.5-33.74a24 24 0 0 1 9.24-33L175.88 256 33.47 177.91a24 24 0 0 1-9.24-33l19.5-33.74A24.06 24.06 0 0 1 77 102.61l138.93 84.11-3.47-162.21A24 24 0 0 1 236.49 0h39a24 24 0 0 1 24 24.51l-3.48 162.21L435 102.61a24.06 24.06 0 0 1 33.28 8.52l19.5 33.74a24 24 0 0 1-9.24 33L336.12 256l142.41 78.09a24 24 0 0 1 9.24 33.04z" class="fa-primary"/></svg>
