<svg xmlns="http://www.w3.org/2000/svg" viewBox="0 0 576 512"><defs><style>.fa-secondary{opacity:.4}</style></defs><path d="M552 64H159.21l52.36 256h293.15a24 24 0 0 0 23.4-18.68l47.27-208A24 24 0 0 0 552 64zM444.42 196.48l-67.83 72a12.27 12.27 0 0 1-17.18 0l-67.83-72c-7.65-7.55-2.23-20.48 8.59-20.48h43.54v-52a12.07 12.07 0 0 1 12.15-12h24.28a12.07 12.07 0 0 1 12.15 12v52h43.54c10.82 0 16.24 12.93 8.59 20.48z" class="fa-secondary"/><path d="M218.12 352h268.42a24 24 0 0 1 23.4 29.32l-5.52 24.28a56 56 0 1 1-63.6 10.4H231.18a56 56 0 1 1-67.05-8.57L93.88 64H24A24 24 0 0 1 0 40V24A24 24 0 0 1 24 0h102.53A24 24 0 0 1 150 19.19z" class="fa-primary"/></svg>
