<svg xmlns="http://www.w3.org/2000/svg" viewBox="0 0 512 512"><defs><style>.fa-secondary{opacity:.4}</style></defs><path d="M256 8C119 8 8 119 8 256s111 248 248 248 248-111 248-248S393 8 256 8zm82.29 357.6c-3.9 3.88-8 7.95-11.31 11.28a23.9 23.9 0 0 0-6.17 10.71c-1.51 5.66-2.73 11.38-4.77 16.87l-17.39 46.85A199.85 199.85 0 0 1 256 456v-27.38c1.69-12.62-7.64-36.26-22.63-51.25a32 32 0 0 1-9.37-22.63v-32a31.89 31.89 0 0 0-16.46-28c-14.37-7.95-34.81-19.06-48.81-26.11a144.16 144.16 0 0 1-31.65-21.75l-.8-.72a114.79 114.79 0 0 1-18.06-20.74C98.84 211.67 83.56 189 73.63 174.3a201.09 201.09 0 0 1 103.2-101.89l24 12A16 16 0 0 0 224 70.11v-11.3a199.85 199.85 0 0 1 24.39-2.42l28.3 28.3a16 16 0 0 1 0 22.63L272 112l-10.34 10.34a8 8 0 0 0 0 11.31l4.69 4.69a8 8 0 0 1 0 11.31l-8 8a8 8 0 0 1-5.66 2.34h-9a8 8 0 0 0-5.58 2.27l-9.92 9.65a8 8 0 0 0-1.58 9.31l15.59 31.19a8 8 0 0 1-7.14 11.59h-5.64a8 8 0 0 1-5.24-2l-9.28-8a16 16 0 0 0-15.55-3.1l-31.17 10.39a12 12 0 0 0-1.56 22l11.08 5.54A67.72 67.72 0 0 0 208 256c10.52 0 22.59 27.29 32 32h66.75a32 32 0 0 1 22.63 9.37l13.69 13.69a30.5 30.5 0 0 1 8.93 21.56 46.51 46.51 0 0 1-13.71 32.98zM425 274.25a24 24 0 0 1-14.15-10l-18-27a24 24 0 0 1 0-26.62l19.59-29.38a24 24 0 0 1 9.24-8.15l13-6.49a193.74 193.74 0 0 1 19.5 114.87z" class="fa-secondary"/><path d="M329.39 297.36a32 32 0 0 0-22.63-9.36H240c-9.41-4.71-21.48-32-32-32a67.72 67.72 0 0 1-30.31-7.16l-11.08-5.54a12 12 0 0 1 1.56-22l31.17-10.39A16 16 0 0 1 214.9 214l9.28 8.06a8 8 0 0 0 5.24 2h5.64a8 8 0 0 0 7.15-11.58l-15.59-31.19a8 8 0 0 1 1.58-9.31l9.92-9.65a8 8 0 0 1 5.58-2.33h9a8 8 0 0 0 5.66-2.34l8-8a8 8 0 0 0 0-11.31l-4.69-4.69a8 8 0 0 1 0-11.31L272 112l4.69-4.68a16 16 0 0 0 0-22.63l-28.3-28.3A199.85 199.85 0 0 0 224 58.81v11.3a16 16 0 0 1-23.16 14.31l-24-12A201.09 201.09 0 0 0 73.63 174.3c9.93 14.72 25.21 37.37 34.59 51.14a114.79 114.79 0 0 0 18.06 20.74l.8.72a144.16 144.16 0 0 0 31.65 21.75c14 7.05 34.44 18.16 48.81 26.11a31.89 31.89 0 0 1 16.46 28v32a32 32 0 0 0 9.37 22.63c15 15 24.32 38.63 22.63 51.25V456a199.85 199.85 0 0 0 42.65-4.69L316 404.46c2-5.49 3.26-11.21 4.77-16.87a23.9 23.9 0 0 1 6.23-10.71c3.32-3.33 7.41-7.4 11.31-11.28a46.51 46.51 0 0 0 13.72-33 30.5 30.5 0 0 0-8.93-21.57zm105.29-130.69l-13 6.49a24 24 0 0 0-9.24 8.15l-19.59 29.38a24 24 0 0 0 0 26.62l18 27a24 24 0 0 0 14.15 10l29.18 7.29a193.74 193.74 0 0 0-19.5-114.87z" class="fa-primary"/></svg>
