<svg xmlns="http://www.w3.org/2000/svg" viewBox="0 0 512 512"><defs><style>.fa-secondary{opacity:.4}</style></defs><path d="M256 8C119 8 8 119 8 256s111 248 248 248 248-111 248-248S393 8 256 8zm6 211.28l-17.37 28.95a16 16 0 0 1-13.69 7.77h-.31a16 16 0 0 0-11.31 4.69l-5.66 5.66a8 8 0 0 0 0 11.31l5.66 5.66a16 16 0 0 1 4.68 11.31V304a16 16 0 0 1-16 16h-6.1a16 16 0 0 1-14.31-8.85L165 265.92a8 8 0 0 0-12.81-2.08l-19.5 19.46a16 16 0 0 1-11.31 4.7H58.81A199.53 199.53 0 0 1 56 256c0-110.28 89.72-200 200-200a199.14 199.14 0 0 1 61.63 9.82l-50.16 38.53a8 8 0 0 0 .86 13.81l10.83 5.41a16 16 0 0 1 8.84 14.31V216a8 8 0 0 1-8 8h-3.06a8 8 0 0 1-7.15-4.42 4.43 4.43 0 0 0-7.79-.3zm149.31 150.46l-9.57 9.57a16 16 0 0 1-11.31 4.69h-15.16a16 16 0 0 1-11.27-4.69l-13-13a26.77 26.77 0 0 0-25.42-7l-21.27 5.32a15.86 15.86 0 0 1-3.88.48H290a16 16 0 0 1-11.31-4.69l-11.91-11.91a8 8 0 0 1-2.34-5.66V332.6a8 8 0 0 1 5-7.43l39.34-15.74a26.81 26.81 0 0 0 5.59-3.05l23.71-16.89a8 8 0 0 1 4.64-1.48h12.09a8 8 0 0 1 7.39 4.93l5.35 12.85a4 4 0 0 0 3.69 2.46h3.8a4 4 0 0 0 3.84-2.88l4.2-14.47A4 4 0 0 1 387 288h6.06a4 4 0 0 1 4 4v13a8 8 0 0 0 2.34 5.66l11.91 11.91a16 16 0 0 1 4.69 11.26v24.6a16 16 0 0 1-4.69 11.31z" class="fa-secondary"/><path d="M269.79 219.58a8 8 0 0 0 7.15 4.42H280a8 8 0 0 0 8-8v-78.12a16 16 0 0 0-8.84-14.31l-10.83-5.41a8 8 0 0 1-.86-13.81l50.16-38.53A199.14 199.14 0 0 0 256 56C145.72 56 56 145.72 56 256a199.53 199.53 0 0 0 2.81 32h62.57a16 16 0 0 0 11.31-4.69l19.47-19.46a8 8 0 0 1 12.84 2.07l22.62 45.23A16 16 0 0 0 201.9 320h6.1a16 16 0 0 0 16-16v-9.37a16 16 0 0 0-4.69-11.31l-5.66-5.66a8 8 0 0 1 0-11.31l5.66-5.66a16 16 0 0 1 11.32-4.69h.31a16 16 0 0 0 13.72-7.77L262 219.28a4.43 4.43 0 0 1 7.79.3zM416 358.43v-24.6a16 16 0 0 0-4.69-11.31l-11.91-11.91a8 8 0 0 1-2.34-5.66V292a4 4 0 0 0-4-4H387a4 4 0 0 0-3.84 2.88L379 305.37a4 4 0 0 1-3.84 2.88h-3.8a4 4 0 0 1-3.69-2.46l-5.35-12.85a8 8 0 0 0-7.39-4.93h-12.14a8 8 0 0 0-4.64 1.48l-23.71 16.89a26.81 26.81 0 0 1-5.59 3.05l-39.34 15.74a8 8 0 0 0-5 7.43v10.2a8 8 0 0 0 2.34 5.66l11.91 11.91a16 16 0 0 0 11.24 4.69h10.34a15.86 15.86 0 0 0 3.88-.48l21.27-5.32a26.77 26.77 0 0 1 25.42 7l13 13a16 16 0 0 0 11.36 4.74h15.16a16 16 0 0 0 11.31-4.69l9.57-9.57a16 16 0 0 0 4.69-11.31z" class="fa-primary"/></svg>
