<svg xmlns="http://www.w3.org/2000/svg" viewBox="0 0 448 512"><defs><style>.fa-secondary{opacity:.4}</style></defs><path d="M436 480h-20V120a24 24 0 0 0-24-24h-72V24a24 24 0 0 0-24-24H152a24 24 0 0 0-24 24v72H56a24 24 0 0 0-24 24v360H12a12 12 0 0 0-12 12v20h192v-96a12 12 0 0 1 12-12h40a12 12 0 0 1 12 12v96h192v-20a12 12 0 0 0-12-12zM192 340a12 12 0 0 1-12 12h-40a12 12 0 0 1-12-12v-40a12 12 0 0 1 12-12h40a12 12 0 0 1 12 12zm0-96a12 12 0 0 1-12 12h-40a12 12 0 0 1-12-12v-40a12 12 0 0 1 12-12h40a12 12 0 0 1 12 12zm48-148v26a6 6 0 0 1-6 6h-20a6 6 0 0 1-6-6V96h-26a6 6 0 0 1-6-6V70a6 6 0 0 1 6-6h26V38a6 6 0 0 1 6-6h20a6 6 0 0 1 6 6v26h26a6 6 0 0 1 6 6v20a6 6 0 0 1-6 6zm80 244a12 12 0 0 1-12 12h-40a12 12 0 0 1-12-12v-40a12 12 0 0 1 12-12h40a12 12 0 0 1 12 12zm0-96a12 12 0 0 1-12 12h-40a12 12 0 0 1-12-12v-40a12 12 0 0 1 12-12h40a12 12 0 0 1 12 12z" class="fa-secondary"/><path d="M176 70a6 6 0 0 1 6-6h26V38a6 6 0 0 1 6-6h20a6 6 0 0 1 6 6v26h26a6 6 0 0 1 6 6v20a6 6 0 0 1-6 6h-26v26a6 6 0 0 1-6 6h-20a6 6 0 0 1-6-6V96h-26a6 6 0 0 1-6-6z" class="fa-primary"/></svg>
