<svg xmlns="http://www.w3.org/2000/svg" viewBox="0 0 576 512"><defs><style>.fa-secondary{opacity:.4}</style></defs><path d="M576 464.2v31.63c0 9.11-7.6 16.81-16.7 16A184.84 184.84 0 0 1 480.18 486c-55 34.13-135.52 34.63-192 0-55 34.13-135.52 34.63-192 0-23.31 14.51-50.61 23.42-79.42 25.92-9.1.8-16.7-6.9-16.7-16V463.7c0-7.91 5.7-14.92 13.6-15.72 21.71-2.3 42.21-10.21 57.71-22.42 13.8-10.91 33.61-13.21 47.11-2 38.31 31.73 107.22 31.83 145.23 1.7 13.7-10.91 33.2-13 46.7-1.8 38.51 31.93 107.82 31.93 145.73 1.5a38.76 38.76 0 0 1 48.21 0c15.8 12.41 36.4 20.52 57.91 22.92 8.04.9 13.84 8.31 13.74 16.32z" class="fa-secondary"/><path d="M96.35 285v99.4c.5 0 .89-.1 1.39-.1a64 64 0 0 1 41.31 14.7c12.77 10.6 32.23 16.7 53.38 16.7 20.36 0 39-5.6 51.39-15.4a73.6 73.6 0 0 1 45.4-16.1 64.11 64.11 0 0 1 41.5 14.8c12.78 10.6 32.23 16.7 53.39 16.7 20.15 0 39.41-5.8 51.58-15.6a70 70 0 0 1 43.8-15.4h.1v-99.8L288 114.85zm239.56-44.9v64a16 16 0 0 1-16 16h-63.82a16 16 0 0 1-16-16v-64a16 16 0 0 1 16-16H320a16 16 0 0 1 15.91 15.95zm216.72-18.6l-73-64.8V48.05a16 16 0 0 0-16-16H431.7a16 16 0 0 0-16 16V100L314.46 10.05a39.67 39.67 0 0 0-52.78 0L23.41 221.45a16 16 0 0 0-1.4 22.6l21.15 24a15.94 15.94 0 0 0 22.55 1.4L288 72.15l222.31 197.3a16 16 0 0 0 22.55-1.4l21.15-24a16.11 16.11 0 0 0-1.38-22.6z" class="fa-primary"/></svg>
