<svg xmlns="http://www.w3.org/2000/svg" viewBox="0 0 384 512"><defs><style>.fa-secondary{opacity:.4}</style></defs><path d="M64 468V274.56l-49.4 11A12 12 0 0 1 0 273.82v-41a12 12 0 0 1 9.4-11.71L64 209v-30.44l-49.4 11A12 12 0 0 1 0 177.82v-41a12 12 0 0 1 9.4-11.71L64 113V44a12 12 0 0 1 12-12h56a12 12 0 0 1 12 12v51.22l129.4-28.76A12 12 0 0 1 288 78.18v41a12 12 0 0 1-9.4 11.72L144 160.78v30.44l129.4-28.76a12 12 0 0 1 14.6 11.72v41a12 12 0 0 1-9.4 11.71L144 256.78V416c86.18 0 168-48 168-148.75 0-6.34 5.64-11.25 12-11.25h48a12 12 0 0 1 12 12.41C378.84 402.17 289.67 480 155.58 480H76a12 12 0 0 1-12-12z" class="fa-primary"/></svg>
