<svg xmlns="http://www.w3.org/2000/svg" viewBox="0 0 640 512"><defs><style>.fa-secondary{opacity:.4}</style></defs><path d="M544 96h-32v224h32a32 32 0 0 0 32-32V128a32 32 0 0 0-32-32zM432 0h-96a48 48 0 0 0-48 48v272h192V48a48 48 0 0 0-48-48zm0 96h-96V48h96zm-240 32v160a32 32 0 0 0 32 32h32V96h-32a32 32 0 0 0-32 32z" class="fa-secondary"/><path d="M640 400v32a16 16 0 0 1-16 16h-82.94a47.5 47.5 0 0 1 2.94 16 48 48 0 0 1-96 0 47.5 47.5 0 0 1 2.94-16H253.06a47.5 47.5 0 0 1 2.94 16 48 48 0 0 1-96 0 47.5 47.5 0 0 1 2.94-16H80a16 16 0 0 1-16-16V64H16A16 16 0 0 1 0 48V16A16 16 0 0 1 16 0h96a16 16 0 0 1 16 16v368h496a16 16 0 0 1 16 16z" class="fa-primary"/></svg>
