<svg xmlns="http://www.w3.org/2000/svg" viewBox="0 0 512 512"><defs><style>.fa-secondary{opacity:.4}</style></defs><path d="M160 256a32 32 0 1 0 32 32 32 32 0 0 0-32-32zm48 96a16 16 0 1 0 16 16 16 16 0 0 0-16-16z" class="fa-secondary"/><path d="M491.2.71C452.5 12.31 379.4 35 303.5 62c-2.1-7-4-13.5-5.6-18.6a16.06 16.06 0 0 0-22.9-9.5C232.6 56 122.2 116.51 60.6 176.41c-1.1 1-2.5 2-3.5 3a194.84 194.84 0 1 0 275.6 275.5c1-1 2-2.4 3-3.5 59.8-61.6 120.4-172.1 142.5-214.4a16.06 16.06 0 0 0-9.5-22.9c-5.2-1.6-11.6-3.5-18.6-5.6 27-76 49.7-149 61.3-187.7A16.18 16.18 0 0 0 491.2.71zM192 448a128 128 0 1 1 128-128 128 128 0 0 1-128 128z" class="fa-primary"/></svg>
