<svg xmlns="http://www.w3.org/2000/svg" viewBox="0 0 448 512"><defs><style>.fa-secondary{opacity:.4}</style></defs><path d="M317.58 208l-74.53 96H416a32 32 0 0 1 32 32v32a32 32 0 0 1-32 32H168.52L86.43 505.73a16 16 0 0 1-22.43 3l-25.41-19.49a16 16 0 0 1-3-22.43L87.49 400H32a32 32 0 0 1-32-32v-32a32 32 0 0 1 32-32h130l74.53-96H32a32 32 0 0 1-32-32v-32a32 32 0 0 1 32-32h279.09L393.17 6.27a16 16 0 0 1 22.44-3L441 22.76a16 16 0 0 1 3 22.43L392.12 112H416a32 32 0 0 1 32 32v32a32 32 0 0 1-32 32z" class="fa-primary"/></svg>
