<svg xmlns="http://www.w3.org/2000/svg" viewBox="0 0 448 512"><defs><style>.fa-secondary{opacity:.4}</style></defs><path d="M448 160v16a16 16 0 0 1-16 16H16a16 16 0 0 1-16-16v-16a16 16 0 0 1 16-16h49c6.66-52.85 45.81-95.52 96.69-108A47.89 47.89 0 0 1 208 0h64a48 48 0 0 1 0 96h-64a47.73 47.73 0 0 1-33.32-13.55c-31.15 7.25-54.8 31.26-61 61.55H432a16 16 0 0 1 16 16z" class="fa-secondary"/><path d="M416 480v16a16 16 0 0 1-16 16H48a16 16 0 0 1-16-16v-16a16 16 0 0 1 16-16h38.22L64 224h320l-22.22 240H400a16 16 0 0 1 16 16z" class="fa-primary"/></svg>
