<svg xmlns="http://www.w3.org/2000/svg" viewBox="0 0 320 512"><defs><style>.fa-secondary{opacity:.4}</style></defs><path d="M48 416V288H20a12 12 0 0 1-12-12v-40a12 12 0 0 1 12-12h28v-66c0-73.26 58-126 139.93-126 48.65 0 85.19 22.56 101.58 34.93A12 12 0 0 1 291.62 84l-28.49 35.51a12 12 0 0 1-15.69 2.69c-11.77-7.35-34-18.85-57.65-18.85-37.23 0-61.79 24.82-61.79 57.08V224h84a12 12 0 0 1 12 12v40a12 12 0 0 1-12 12h-84v126.85h122.51V364a12 12 0 0 1 12-12H308a12 12 0 0 1 12 12v104a12 12 0 0 1-12 12H12a12 12 0 0 1-12-12v-40a12 12 0 0 1 12-12z" class="fa-primary"/></svg>
