<svg xmlns="http://www.w3.org/2000/svg" viewBox="0 0 640 512"><defs><style>.fa-secondary{opacity:.4}</style></defs><path d="M378.2 464H112v-80H64v96a32 32 0 0 0 32 32h320a32 32 0 0 0 32-32 158.89 158.89 0 0 1-62.29-12.59q-3.81-1.61-7.51-3.41zm60.43-409.38L393.37 9.37A32 32 0 0 0 370.74 0H96a32 32 0 0 0-32 32v160h48V48h240v32a16 16 0 0 0 16 16h32v71.34a159.27 159.27 0 0 1 48-7.34V77.25a32 32 0 0 0-9.37-22.63z" class="fa-secondary"/><path d="M635.31 462.06l-77.41-77.41A126.69 126.69 0 0 0 576 320a128 128 0 1 0-128 128c23.7 0 45.61-6.88 64.65-18.11l77.41 77.42a16 16 0 0 0 22.63 0l22.62-22.62a16 16 0 0 0 0-22.63zM448 384a64 64 0 1 1 64-64 64 64 0 0 1-64 64zm-160-64a159.66 159.66 0 0 1 46.86-113.14A161.44 161.44 0 0 1 352 192H64a64 64 0 0 0-64 64v112a16 16 0 0 0 16 16h285.33c-.24-.57-.5-1.14-.74-1.71A158.89 158.89 0 0 1 288 320z" class="fa-primary"/></svg>
