<svg xmlns="http://www.w3.org/2000/svg" viewBox="0 0 512 512"><defs><style>.fa-secondary{opacity:.4}</style></defs><path d="M176 32H48A48 48 0 0 0 0 80v128a48 48 0 0 0 48 48h80v64a64.06 64.06 0 0 1-64 64h-8a23.94 23.94 0 0 0-24 24v48a23.94 23.94 0 0 0 24 24h8a160 160 0 0 0 160-160V80a48 48 0 0 0-48-48zm288 0H336a48 48 0 0 0-48 48v128a48 48 0 0 0 48 48h80v64a64.06 64.06 0 0 1-64 64h-8a23.94 23.94 0 0 0-24 24v48a23.94 23.94 0 0 0 24 24h8a160 160 0 0 0 160-160V80a48 48 0 0 0-48-48z" class="fa-primary"/></svg>
