<svg xmlns="http://www.w3.org/2000/svg" viewBox="0 0 512 512"><defs><style>.fa-secondary{opacity:.4}</style></defs><path d="M504 57.94V192a24 24 0 0 1-24 24H345.94c-21.38 0-32.09-25.85-17-41l41.75-41.75A166.73 166.73 0 0 0 257.49 88C165.09 87.21 87.21 162 88 257.45 88.76 348 162.18 424 256 424a166.74 166.74 0 0 0 110.63-41.56A12 12 0 0 1 383 383l39.66 39.66a12 12 0 0 1-.48 17.43A247.1 247.1 0 0 1 256 504C119 504 8 393 8 256 8 119.19 119.65 7.76 256.46 8a247.12 247.12 0 0 1 170.85 68.69L463 41c15.15-15.15 41-4.44 41 16.94z" class="fa-primary"/></svg>
