<svg xmlns="http://www.w3.org/2000/svg" viewBox="0 0 512 512"><defs><style>.fa-secondary{opacity:.4}</style></defs><path d="M160 400a16 16 0 0 1 0-32c114.69 0 208-93.31 208-208a16 16 0 0 1 32 0c0 132.34-107.66 240-240 240z" class="fa-secondary"/><path d="M447.83 69.83L463 24.18A18.36 18.36 0 0 0 451.41 1a18.11 18.11 0 0 0-5.79-1h-59.24a18.36 18.36 0 0 0-18.33 18.39 18.68 18.68 0 0 0 .95 5.79l15.21 45.65C346.88 83 320 118.2 320 160c0 88.22-71.78 160-160 160-41.8 0-77 26.88-90.17 64.17L24.18 369A18.36 18.36 0 0 0 1 380.59a18.11 18.11 0 0 0-1 5.79v59.24A18.38 18.38 0 0 0 24.18 463l45.65-15.21C83 485.12 118.2 512 160 512c194.09 0 352-157.91 352-352 0-41.8-26.88-77-64.17-90.17zM160 400a16 16 0 0 1 0-32c114.69 0 208-93.31 208-208a16 16 0 0 1 32 0c0 132.34-107.66 240-240 240z" class="fa-primary"/></svg>
