<svg xmlns="http://www.w3.org/2000/svg" viewBox="0 0 448 512"><defs><style>.fa-secondary{opacity:.4}</style></defs><path d="M382.74 160a444.61 444.61 0 0 1-8.65 64H256v200.27a217.25 217.25 0 0 1-32.07 21.3A213.41 213.41 0 0 1 192 424.76V224H74.8a444.82 444.82 0 0 1-8.9-64H192V80.37l32-14.29 32 14.29V160z" class="fa-secondary"/><path d="M420.43 83.69l-179.2-80a42.07 42.07 0 0 0-34.46 0l-179.2 80C10.88 91.14 0 108.62 0 128c0 198.49 106.86 335.71 206.77 380.31a42.07 42.07 0 0 0 34.46 0C321.13 472.64 448 349.28 448 128c0-19.38-10.88-36.86-27.57-44.31zM374.09 224H256v200.27a217.25 217.25 0 0 1-32.07 21.3A213.41 213.41 0 0 1 192 424.76V224H74.8a444.82 444.82 0 0 1-8.9-64H192V80.37l32-14.29 32 14.29V160h126.74a444.61 444.61 0 0 1-8.65 64z" class="fa-primary"/></svg>
