<svg xmlns="http://www.w3.org/2000/svg" viewBox="0 0 384 512"><defs><style>.fa-secondary{opacity:.4}</style></defs><path d="M64 154.12V64H0c0 41.74 26.8 76.9 64 90.12zM384 64h-64v90.12c37.2-13.22 64-48.38 64-90.12zM64 282.12V192H0c0 41.74 26.8 76.9 64 90.12zm256 0c37.2-13.22 64-48.38 64-90.12h-64zM64 320H0c0 42.79 28.19 78.61 66.86 91A128.52 128.52 0 0 1 64 384zm256 64a128.52 128.52 0 0 1-2.86 27c38.67-12.4 66.86-48.22 66.86-91h-64z" class="fa-secondary"/><path d="M288 0H96a32 32 0 0 0-32 32v352a128 128 0 0 0 128 128 128 128 0 0 0 128-128V32a32 32 0 0 0-32-32zm-96 416a48 48 0 1 1 48-48 48 48 0 0 1-48 48zm0-128a48 48 0 1 1 48-48 48 48 0 0 1-48 48zm0-128a48 48 0 1 1 48-48 48 48 0 0 1-48 48z" class="fa-primary"/></svg>
