<svg xmlns="http://www.w3.org/2000/svg" viewBox="0 0 640 512"><defs><style>.fa-secondary{opacity:.4}</style></defs><path d="M225 441.46V417h-64v24.45l-30.29 48.4A16 16 0 0 0 145 513h96a16 16 0 0 0 14.31-23.16zM616.87 416H416v24.45l-30.29 48.4A16 16 0 0 0 400 512h96a16 16 0 0 0 14.31-23.16L480 440.46V416z" class="fa-secondary"/><path d="M299.42 289h30.63a22.72 22.72 0 0 0 20.78-13 22 22 0 0 0-3.28-24l-78.13-91h28.89a22.66 22.66 0 0 0 20.86-13.61 22.25 22.25 0 0 0-4.24-24.08L204.66 5.84c-6-6.45-17.28-6.45-23.32 0L71.06 123.32a22.27 22.27 0 0 0-4.24 24.08A22.67 22.67 0 0 0 87.69 161h28.89l-78.14 90.92a22.08 22.08 0 0 0-3.27 24A22.72 22.72 0 0 0 56 289h30.58L6.69 379.5a22.11 22.11 0 0 0-3.56 24.26 23.19 23.19 0 0 0 21 13.25h337.73a23.19 23.19 0 0 0 21-13.25 22.11 22.11 0 0 0-3.56-24.26zm334.89 89.5L554.42 288h30.63a22.72 22.72 0 0 0 20.78-13 22 22 0 0 0-3.28-24l-78.13-91h28.89a22.66 22.66 0 0 0 20.86-13.61 22.25 22.25 0 0 0-4.24-24.08L459.66 4.84c-6-6.45-17.28-6.45-23.32 0L341.28 106.1c11.09 15.37 14 35.3 6.34 53a54.39 54.39 0 0 1-18.26 22.68l41.54 48.32a54.56 54.56 0 0 1-10.17 80.1l41.62 47.15C411 367.11 415.69 371.46 416 384v32h200.87a23.19 23.19 0 0 0 21-13.25 22.13 22.13 0 0 0-3.56-24.25z" class="fa-primary"/></svg>
