<svg xmlns="http://www.w3.org/2000/svg" viewBox="0 0 512 512"><defs><style>.fa-secondary{opacity:.4}</style></defs><path d="M424 257.45C424.79 162 346.91 87.21 254.51 88a166.73 166.73 0 0 0-113.23 45.27L183 175c15.12 15.12 4.41 41-17 41H32a24 24 0 0 1-24-24V57.94C8 36.56 33.85 25.85 49 41l35.69 35.69A247.12 247.12 0 0 1 255.54 8C392.35 7.76 504 119.19 504 256c0 137-111 248-248 248a247.1 247.1 0 0 1-166.18-63.91 12 12 0 0 1-.48-17.43L129 383a12 12 0 0 1 16.37-.56A166.74 166.74 0 0 0 256 424c93.82 0 167.24-76 168-166.55z" class="fa-primary"/></svg>
