<svg xmlns="http://www.w3.org/2000/svg" viewBox="0 0 640 512"><defs><style>.fa-secondary{opacity:.4}</style></defs><path d="M184 256a24 24 0 1 1 24 24 24.07 24.07 0 0 1-24-24z" class="fa-secondary"/><path d="M634 326.3l-150-120a16.15 16.15 0 0 0-18.2-1.2l-27.4 16.2a8 8 0 0 1-9.1-.6l-25.2-20.2a8 8 0 0 1-2.6-8.9l10.2-29.5a15.94 15.94 0 0 0-5.1-17.7L320 80.8c-62.6-40.1-141.7-42.9-207-9.3C100.9 56.9 83.2 48 64 48a64.06 64.06 0 0 0-64 64 63.24 63.24 0 0 0 23 49c-40.1 78.2-27.5 176.5 38 242 89.8 89.8 251.1 81.4 326.5-32l150.4 86a15.9 15.9 0 0 0 20.7-4.3l78.2-104.3a16 16 0 0 0-2.8-22.1zM40.4 133.2a31.86 31.86 0 0 1 45.1-44.9c-17.8 13-29.9 24.3-45.1 44.9zM208 328a72 72 0 1 1 72-72 72.08 72.08 0 0 1-72 72z" class="fa-primary"/></svg>
