<svg xmlns="http://www.w3.org/2000/svg" viewBox="0 0 512 512"><defs><style>.fa-secondary{opacity:.4}</style></defs><path d="M256 8C118.94 8 8 118.92 8 256s110.92 248 248 248a248.74 248.74 0 0 0 135.41-40.22A24 24 0 0 0 397 428.4L386.78 416a23.93 23.93 0 0 0-31.37-5.13A184.46 184.46 0 0 1 256 440c-101.46 0-184-82.54-184-184S154.54 72 256 72c100.14 0 184 57.62 184 160 0 38.79-21.09 79.74-58.17 83.69-17.35-.45-16.91-12.85-13.48-30l23.44-121.11A24 24 0 0 0 368.23 136h-45a13.52 13.52 0 0 0-13.43 12v.09c-14.69-17.9-40.45-21.77-60-21.77-74.55-.01-137.8 62.22-137.8 151.45 0 65.3 36.79 105.87 96 105.87 27 0 57.37-15.64 75-38.33 9.52 34.1 40.61 34.1 70.71 34.1C462.61 379.41 504 307.8 504 232 504 95.65 394 8 256 8zm-21.68 304.43c-22.25 0-36.07-15.62-36.07-40.77 0-45 30.78-72.73 58.63-72.73 22.29 0 35.6 15.24 35.6 40.77 0 45.06-33.87 72.73-58.16 72.73z" class="fa-primary"/></svg>
