<svg xmlns="http://www.w3.org/2000/svg" viewBox="0 0 576 512"><defs><style>.fa-secondary{opacity:.4}</style></defs><path d="M552 64H159.21l52.36 256h293.15a24 24 0 0 0 23.4-18.68l47.27-208A24 24 0 0 0 552 64zM448 200a16 16 0 0 1-16 16h-40v40a16 16 0 0 1-16 16h-16a16 16 0 0 1-16-16v-40h-40a16 16 0 0 1-16-16v-16a16 16 0 0 1 16-16h40v-40a16 16 0 0 1 16-16h16a16 16 0 0 1 16 16v40h40a16 16 0 0 1 16 16z" class="fa-secondary"/><path d="M218.12 352h268.42a24 24 0 0 1 23.4 29.32l-5.52 24.28a56 56 0 1 1-63.6 10.4H231.18a56 56 0 1 1-67.05-8.57L93.88 64H24A24 24 0 0 1 0 40V24A24 24 0 0 1 24 0h102.53A24 24 0 0 1 150 19.19z" class="fa-primary"/></svg>
