<svg xmlns="http://www.w3.org/2000/svg" viewBox="0 0 320 512"><defs><style>.fa-secondary{opacity:.4}</style></defs><path d="M297.72 375.1c-15.4 44.1-59.11 71.8-105.72 72.7V496a16 16 0 0 1-16 16h-32a16 16 0 0 1-16-16v-48a141.44 141.44 0 0 1-86.52-30c-7.9-6.1-8.9-17.6-1.8-24.5l34.81-34a15.59 15.59 0 0 1 19.5-2 61.07 61.07 0 0 0 34.2 10.5h66.31a29.49 29.49 0 0 0 8.3-57.8l-102.52-30c-44.41-13-79.62-50.5-83.82-96.6A109.58 109.58 0 0 1 125.49 64H128V16a16 16 0 0 1 16-16h32a16 16 0 0 1 16 16v48a141.46 141.46 0 0 1 86.52 30c7.9 6.1 8.9 17.6 1.8 24.5l-34.81 34a15.59 15.59 0 0 1-19.5 2A61.07 61.07 0 0 0 191.8 144h-66.31a29.49 29.49 0 0 0-8.3 57.8l108 31.6c57.93 16.9 94.04 80.1 72.53 141.7z" class="fa-primary"/></svg>
