<svg xmlns="http://www.w3.org/2000/svg" viewBox="0 0 640 512"><defs><style>.fa-secondary{opacity:.4}</style></defs><path d="M288 64a94.76 94.76 0 0 1 5.9-32h34.68A63.63 63.63 0 0 0 352 119.12V192a32 32 0 0 0 32 32h8a8 8 0 0 1 8 8v16a8 8 0 0 1-8 8h-8a64.07 64.07 0 0 1-64-64v-56.8A96 96 0 0 1 288 64z" class="fa-secondary"/><path d="M512 32h-72.65A63.9 63.9 0 1 0 352 119.12V192a32 32 0 0 0 32 32h8a8 8 0 0 1 8 8v16a8 8 0 0 1-8 8h-8a64.07 64.07 0 0 1-64-64v-56.8A96 96 0 0 1 288 64a94.76 94.76 0 0 1 5.9-32H192C86 32 0 118 0 224v112a16 16 0 0 0 16 16h16v144a16 16 0 0 0 16 16h64a16 16 0 0 0 16-16V388.15C160.35 405.7 198.72 416 240 416s79.65-10.3 112-27.85V496a16 16 0 0 0 16 16h64a16 16 0 0 0 16-16V288h64c23.44 0 45.11-6.76 64-17.75V368a16 16 0 0 1-32 0 16 16 0 0 0-16-16h-32a16 16 0 0 0-16 16 80.09 80.09 0 0 0 88.36 79.57C610 443.32 640 405.11 640 363.27V160A128 128 0 0 0 512 32zm16 128a16 16 0 1 1 16-16 16 16 0 0 1-16 16z" class="fa-primary"/></svg>
