<svg xmlns="http://www.w3.org/2000/svg" viewBox="0 0 512 512"><defs><style>.fa-secondary{opacity:.4}</style></defs><path d="M80 242a14 14 0 1 0 14 14 14 14 0 0 0-14-14zm176 0a14 14 0 1 0 14 14 14 14 0 0 0-14-14zm176 0a14 14 0 1 0 14 14 14 14 0 0 0-14-14z" class="fa-secondary"/><path d="M80 184a72 72 0 1 0 72 72 72 72 0 0 0-72-72zm0 86a14 14 0 1 1 14-14 14 14 0 0 1-14 14zm176-86a72 72 0 1 0 72 72 72 72 0 0 0-72-72zm0 86a14 14 0 1 1 14-14 14 14 0 0 1-14 14zm176-86a72 72 0 1 0 72 72 72 72 0 0 0-72-72zm0 86a14 14 0 1 1 14-14 14 14 0 0 1-14 14z" class="fa-primary"/></svg>
