<svg xmlns="http://www.w3.org/2000/svg" viewBox="0 0 448 512"><defs><style>.fa-secondary{opacity:.4}</style></defs><path d="M96 96H32a32 32 0 0 0-32 32v64a32 32 0 0 0 32 32h64a32 32 0 0 0 32-32v-64a32 32 0 0 0-32-32zm0 192H32a32 32 0 0 0-32 32v64a32 32 0 0 0 32 32h64a32 32 0 0 0 32-32v-64a32 32 0 0 0-32-32zm160 0h-64a32 32 0 0 0-32 32v64a32 32 0 0 0 32 32h64a32 32 0 0 0 32-32v-64a32 32 0 0 0-32-32zM416 96h-64a32 32 0 0 0-32 32v64a32 32 0 0 0 32 32h64a32 32 0 0 0 32-32v-64a32 32 0 0 0-32-32zm-160 0h-64a32 32 0 0 0-32 32v64a32 32 0 0 0 32 32h64a32 32 0 0 0 32-32v-64a32 32 0 0 0-32-32zm160 192h-64a32 32 0 0 0-32 32v64a32 32 0 0 0 32 32h64a32 32 0 0 0 32-32v-64a32 32 0 0 0-32-32z" class="fa-primary"/></svg>
