<svg xmlns="http://www.w3.org/2000/svg" viewBox="0 0 512 512"><defs><style>.fa-secondary{opacity:.4}</style></defs><path d="M80 0L53.34 53.33 0 80l53.34 26.67L80 160l26.66-53.33L160 80l-53.34-26.67zm378.66 341.33L432 288l-26.66 53.33L352 368l53.34 26.67L432 448l26.66-53.33L512 368zM224 0l-16 32-32 16 32 16 16 32 16-32 32-16-32-16z" class="fa-secondary"/><path d="M502.62 94.23L417.77 9.38a32 32 0 0 0-45.25 0L9.38 372.52a32 32 0 0 0 0 45.25l84.85 84.85a32 32 0 0 0 45.25 0l363.14-363.15a32 32 0 0 0 0-45.24zM359.45 203.46l-50.91-50.91L395.14 66l50.91 50.91z" class="fa-primary"/></svg>
