<svg xmlns="http://www.w3.org/2000/svg" viewBox="0 0 288 512"><defs><style>.fa-secondary{opacity:.4}</style></defs><path d="M288 208a143.63 143.63 0 0 0-51.2-110.1c2.5-1.8 4.9-3.8 7.2-5.8 24.7-21.2 39.8-48.8 43.2-78.8A11.88 11.88 0 0 0 275.3 0h-40.5A12 12 0 0 0 223 9.8c-2.4 12.5-9.6 24.3-20.7 33.8C187 56.8 166.3 64 144 64s-43-7.2-58.4-20.4C74.5 34.1 67.4 22.3 64.9 9.8A12 12 0 0 0 53.2 0H12.7A11.88 11.88 0 0 0 .8 13.3C4.2 43.4 19.2 71 44 92.2c2.3 2 4.7 3.9 7.2 5.8A143.91 143.91 0 0 0 112 348.4V400H76a12 12 0 0 0-12 12v40a12 12 0 0 0 12 12h36v36a12 12 0 0 0 12 12h40a12 12 0 0 0 12-12v-36h36a12 12 0 0 0 12-12v-40a12 12 0 0 0-12-12h-36v-51.6A144 144 0 0 0 288 208zm-144 80a80 80 0 1 1 80-80 80.11 80.11 0 0 1-80 80z" class="fa-primary"/></svg>
