<svg xmlns="http://www.w3.org/2000/svg" viewBox="0 0 640 512"><defs><style>.fa-secondary{opacity:.4}</style></defs><path d="M535.37 192.1l-.37-.1 85.34-154.58a10.49 10.49 0 0 1 19.39 7.46L600.9 210.73A95.49 95.49 0 0 0 544 192c-2.9 0-5.78 0-8.63.1z" class="fa-secondary"/><path d="M544 192c-243 0-315.29 224-380.12 224A35.92 35.92 0 0 1 128 380.13v-98l49.75-30.51A32 32 0 0 0 192 225v-81a16 16 0 0 0-24.88-13.31L96 178.13l-71.12-47.42A16 16 0 0 0 0 144v81a32 32 0 0 0 14.25 26.62L64 282.14v98A100 100 0 0 0 163.88 480H576a64 64 0 0 0 64-64V288a96.1 96.1 0 0 0-96-96zM432 352a16 16 0 1 1 16-16 16 16 0 0 1-16 16z" class="fa-primary"/></svg>
