<svg xmlns="http://www.w3.org/2000/svg" viewBox="0 0 320 512"><defs><style>.fa-secondary{opacity:.4}</style></defs><path d="M308 96h-72.94a137.16 137.16 0 0 1 14.25 32H308a12 12 0 0 1 12 12v40a12 12 0 0 1-12 12h-52.81c-7.19 74.51-61.82 125.57-138.32 127.91l150.88 139.27a12 12 0 0 1-8.14 20.82h-82.56a12 12 0 0 1-8.14-3.18L3.86 324.46A12 12 0 0 1 0 315.64v-53a12 12 0 0 1 12-12h84c41.8 0 68.54-22.54 74.76-58.63H12A12 12 0 0 1 0 180v-40a12 12 0 0 1 12-12h146.25c-12.71-17.29-33.66-27.25-61-27.25H12a12 12 0 0 1-12-12V44a12 12 0 0 1 12-12h296a12 12 0 0 1 12 12v40a12 12 0 0 1-12 12z" class="fa-primary"/></svg>
