<svg xmlns="http://www.w3.org/2000/svg" viewBox="0 0 448 512"><defs><style>.fa-secondary{opacity:.4}</style></defs><path d="M224 448.1a46.59 46.59 0 0 0 22.19-5.6l9.81-5.2V496a16 16 0 0 1-16 16h-32a16 16 0 0 1-16-16v-58.6l9.8 5.2a47.65 47.65 0 0 0 22.2 5.5z" class="fa-secondary"/><path d="M445.72 186.3L419.33 160l18.29-18.3a8 8 0 0 0-5.7-13.7h-117.8A94.16 94.16 0 0 0 320 96a96 96 0 1 0-192 0 94.39 94.39 0 0 0 5.89 32H16a8 8 0 0 0-5.7 13.7L28.72 160 2.33 186.3a8 8 0 0 0 0 11.3L28.72 224l-18.3 18.3a8 8 0 0 0 5.7 13.7h106.1l-26 141.3a16 16 0 0 0 22.9 16.9l32.71-24.2a16 16 0 0 1 17.09-1.3l47.91 25.5a15.08 15.08 0 0 0 14.29 0L279 388.7a16 16 0 0 1 17.09 1.3l32.71 24.2a15.93 15.93 0 0 0 22.89-16.9L325.92 256H432a8.05 8.05 0 0 0 5.69-13.7L419.33 224l26.29-26.3a8 8 0 0 0 .1-11.4zM192 96a16 16 0 1 1 16-16 16 16 0 0 1-16 16zm64 16a16 16 0 1 1 16-16 16 16 0 0 1-16 16z" class="fa-primary"/></svg>
