<svg xmlns="http://www.w3.org/2000/svg" viewBox="0 0 512 512"><defs><style>.fa-secondary{opacity:.4}</style></defs><path d="M256.1 446.27l-.1-381 175.9 73.31C428.6 290 349.8 399.67 256.1 446.27z" class="fa-secondary"/><path d="M466.5 83.67l-192-80a48.15 48.15 0 0 0-36.9 0l-192 80A48 48 0 0 0 16 128c0 198.5 114.5 335.69 221.5 380.29a48.15 48.15 0 0 0 36.9 0C360.1 472.58 496 349.27 496 128a48 48 0 0 0-29.5-44.33zm-210.4 362.6l-.1-381 175.9 73.31C428.6 290 349.8 399.67 256.1 446.27z" class="fa-primary"/></svg>
