<svg xmlns="http://www.w3.org/2000/svg" viewBox="0 0 512 512"><defs><style>.fa-secondary{opacity:.4}</style></defs><path d="M500.3 96.37l-84.68-84.68a40 40 0 0 0-56.56 0l-32.67 32.67a98.91 98.91 0 0 0-18.77 114.77L197.36 269.38l-45.26-45.26a32 32 0 0 0-45.25 0L39 292c-50 50-45.29 181-22.66 203.65S170 523 220 473l67.88-67.88a32 32 0 0 0 0-45.25l-45.26-45.26 110.25-110.24a98.9 98.9 0 0 0 114.76-18.76l32.67-32.67a40 40 0 0 0 0-56.57zm-77.92 44a35.89 35.89 0 0 1-50.75-50.75l15.7-15.7 50.75 50.75z" class="fa-primary"/></svg>
