<svg xmlns="http://www.w3.org/2000/svg" viewBox="0 0 512 512"><defs><style>.fa-secondary{opacity:.4}</style></defs><path d="M419.24 324.42c-17.83 9.13-29.28 25.2-30.63 43l-4.7 61.86c-3.41 44.79-65.13 66.78-104.45 37.22l-54.32-40.83c-15.62-11.73-37-16.12-57.07-11.73l-70 15.28C47.46 440.27 4 396.65 24.62 355.4l28.43-57c8.18-16.38 6.44-35.17-4.64-50.24l-38.54-52.4c-27.9-37.95 7-86.9 59-82.83l71.88 5.62c20.66 1.62 40.94-5.6 54.2-19.31l46.14-47.67c33.41-34.51 98.4-21.15 110 22.62l16 60.45c4.6 17.38 18.86 31.7 38.14 38.3l67.06 22.95c48.54 16.62 53.83 73.83 8.95 96.79z" class="fa-primary"/></svg>
