<svg xmlns="http://www.w3.org/2000/svg" viewBox="0 0 512 512"><defs><style>.fa-secondary{opacity:.4}</style></defs><path d="M445.21 335.32a140 140 0 0 1-38.68 72.35c-39.44 39-94.33 48-137.7 34.41a144.36 144.36 0 0 1-28.73-12.61 13.08 13.08 0 0 1 1.5-23.47c32.53-13.68 70.06-47.83 77.19-100.08 22.59-8 47.94-3.21 65.21 14.06 16.25 16.27 39.67 21.39 61.21 15.34z" class="fa-secondary"/><path d="M384 160a64.08 64.08 0 0 1 64 64v83c0 37.73-14.65 74.2-41.48 100.72-39.44 39-94.33 48-137.7 34.41a144.36 144.36 0 0 1-28.73-12.61A13.08 13.08 0 0 1 241.6 406c36.11-15.19 78.4-55.6 78.4-118v-64c.83-21.86 20.15-64 64-64M176 0h-32a16 16 0 0 0-16 16v80a128 128 0 0 0 128 128h.49c-.07 1.85-.49 3.63-.49 5.5V288a64 64 0 0 1-64 64h-64A128 128 0 0 0 0 480v16a16 16 0 0 0 16 16h32a16 16 0 0 0 16-16v-16c0-37.63 34-51.21 53.92-51.21 17.11 0 29.59 6.71 41.07 18.2 63.07 63.07 129.84 65 146.71 65h2.66C420.84 512 512 420.83 512 308.35V224A128 128 0 0 0 384 96c-54.29 0-90.86 32.57-109.17 64H256a64 64 0 0 1-64-64V16a16 16 0 0 0-16-16z" class="fa-primary"/></svg>
