<svg xmlns="http://www.w3.org/2000/svg" viewBox="0 0 576 512"><defs><style>.fa-secondary{opacity:.4}</style></defs><path d="M288 224a16 16 0 0 0-16 16v64a16 16 0 0 0 32 0v-64a16 16 0 0 0-16-16zM96 256h64V32H96zM416 32v224h64V32zM96 480h64V288H96zm320 0h64V288h-64z" class="fa-secondary"/><path d="M160 256h64v-48a16 16 0 0 1 16-16h96a16 16 0 0 1 16 16v48h64V32H160zM0 448a32 32 0 0 0 32 32h64V288H0zm0-320v128h96V32a96 96 0 0 0-96 96zm480 352h64a32 32 0 0 0 32-32V288h-96zM352 336a16 16 0 0 1-16 16h-96a16 16 0 0 1-16-16v-48h-64v192h256V288h-64zM480 32v224h96V128a96 96 0 0 0-96-96z" class="fa-primary"/></svg>
