<svg xmlns="http://www.w3.org/2000/svg" viewBox="0 0 512 512"><defs><style>.fa-secondary{opacity:.4}</style></defs><path d="M508.82 156.9c-3.1 4.4-62.8 88.6-90.4 116.2-41.9 42-94.1 49.6-139.1 28.7L98.82 503a27.26 27.26 0 0 1-39.5 1.1L8 452.8a27.18 27.18 0 0 1 1-39.5l201.1-180.7c-20.9-45-13.1-97.3 28.7-139.1C266.42 66 350.62 6.3 355 3.2c18.8-13.7 52.9 19.9 37.5 39.3L279.32 155.7c-1.7 3.8 9.5 14.7 12.9 12.9C313.62 149.4 410 63.3 412.32 61.3c19.3-14.1 52.5 19.1 38.4 38.4-2 2.2-88.1 98.6-107.3 120.1-1.8 3.4 9.1 14.6 12.9 12.9l113.2-113.2c19.4-15.3 53 18.7 39.3 37.4z" class="fa-primary"/></svg>
