<svg xmlns="http://www.w3.org/2000/svg" viewBox="0 0 512 512"><defs><style>.fa-secondary{opacity:.4}</style></defs><path d="M93.51 80c0-35.3 28.92-64 64.49-64a64.12 64.12 0 0 1 41.53 15.4 64.26 64.26 0 0 1 110.47 0A64.11 64.11 0 0 1 351.5 16c35.58 0 64.5 28.7 64.5 64s-28.92 64-64.5 64a64.46 64.46 0 0 1-35.07-10.4L287 192h-64.5l-29.42-58.4A64.49 64.49 0 0 1 158 144c-35.57 0-64.49-28.7-64.49-64z" class="fa-secondary"/><path d="M180.1 323.8a57.39 57.39 0 0 1 44.1-21.6c17.2-1.5 33.6 7 44.8 20.1l31.6 36.8c9.8 11.4 29.2 11.4 39 0l45.1-52.6-55-70.2a32.18 32.18 0 0 0-25.3-12.3h-96.8a32 32 0 0 0-25.2 12.3l-55.6 71 13.2 16.5c9.8 12.2 30.3 12.2 40.1 0zm325.4 137L404.7 332.1l-40.9 47.7a57.59 57.59 0 0 1-87.6 0L244.6 343a25.72 25.72 0 0 0-19.5-9h-.4a25.8 25.8 0 0 0-19.6 9.7c-22.1 27.5-68.1 27.5-90.1 0l-8.4-10.6L6.5 460.8C-9.4 481.9 5.7 512 32.1 512H480c26.3 0 41.4-30.1 25.5-51.2z" class="fa-primary"/></svg>
