<svg xmlns="http://www.w3.org/2000/svg" viewBox="0 0 352 512"><defs><style>.fa-secondary{opacity:.4}</style></defs><path d="M346 49.6L265.91 200h58.3a12 12 0 0 1 12 12v32a12 12 0 0 1-12 12H236l-19.8 37.2V320h108a12 12 0 0 1 12 12v32a12 12 0 0 1-12 12h-108v92a12 12 0 0 1-12 12h-56a12 12 0 0 1-12-12v-92h-108a12 12 0 0 1-12-12v-32a12 12 0 0 1 12-12h108v-26.8L116.41 256h-88.2a12 12 0 0 1-12-12v-32a12 12 0 0 1 12-12h58.3L6.41 49.6A12 12 0 0 1 17 32h65.2A12 12 0 0 1 93 38.7l55.4 113.2c14.5 34.7 27.1 71.9 27.1 71.9h1.3s12.6-37.2 27.1-71.9l55.4-113.2a12 12 0 0 1 10.8-6.7h65.3A12 12 0 0 1 346 49.6z" class="fa-primary"/></svg>
